<svg width="375" height="812" viewBox="0 0 375 812" fill="none" xmlns="http://www.w3.org/2000/svg">
<g clip-path="url(#clip0_227_459)">
<rect width="375" height="812" fill="white"/>
<g clip-path="url(#clip1_227_459)">
<mask id="mask0_227_459" style="mask-type:luminance" maskUnits="userSpaceOnUse" x="-105" y="-95" width="587" height="587">
<path d="M188.031 491.062C349.868 491.062 481.062 359.868 481.062 198.031C481.062 36.1945 349.868 -95 188.031 -95C26.1945 -95 -105 36.1945 -105 198.031C-105 359.868 26.1945 491.062 188.031 491.062Z" fill="white"/>
</mask>
<g mask="url(#mask0_227_459)">
<path d="M-339.975 396.049C-365.694 371.515 -354.895 325.569 -328.426 301.785C-301.957 278 -265.749 269.448 -231.976 258.211C-198.203 247.036 -162.807 229.869 -147.887 197.594C-129.659 158.265 -147.7 108.823 -127.911 70.2437C-109.183 33.6616 -64.4229 20.6769 -24.657 10.314C15.1088 -0.0488241 59.744 -15.7804 74.9137 -53.9855C84.9019 -79.2059 78.9714 -107.548 75.7252 -134.516C72.479 -161.484 73.4778 -192.261 93.0174 -211.051C117.239 -234.336 156.131 -227.719 189.342 -232.963C243.778 -241.516 289.35 -289.834 294.718 -344.645" stroke="url(#paint0_linear_227_459)" stroke-opacity="0.4" stroke-width="9" stroke-linecap="round" stroke-linejoin="round"/>
<path d="M-308.324 421.021C-334.044 396.487 -323.244 350.541 -296.775 326.756C-270.306 302.972 -234.099 294.419 -200.326 283.182C-166.553 272.008 -131.157 254.841 -116.237 222.566C-98.0084 183.237 -116.05 133.795 -96.2604 95.2154C-77.5324 58.6333 -32.7725 45.6485 6.99339 35.2857C46.7592 24.9229 91.3944 9.19132 106.564 -29.0139C116.552 -54.2343 110.622 -82.576 107.376 -109.544C104.129 -136.513 105.128 -167.289 124.668 -186.08C148.889 -209.365 187.781 -202.748 220.992 -207.991C275.428 -216.544 321 -264.862 326.369 -319.673" stroke="url(#paint1_linear_227_459)" stroke-opacity="0.4" stroke-width="9" stroke-linecap="round" stroke-linejoin="round"/>
<path d="M-276.611 445.928C-302.331 421.394 -291.531 375.448 -265.062 351.664C-238.656 327.816 -202.386 319.326 -168.613 308.09C-134.84 296.915 -99.4443 279.748 -84.5243 247.473C-66.2957 208.144 -84.337 158.702 -64.5477 120.123C-45.8197 83.5405 -1.05972 70.5558 38.7061 60.193C78.472 49.8301 123.107 34.0986 138.277 -4.10661C148.265 -29.327 142.335 -57.6688 139.088 -84.6371C135.842 -111.606 136.841 -142.382 156.381 -161.172C180.602 -184.458 219.494 -177.84 252.705 -183.084C307.141 -191.637 352.713 -239.955 358.081 -294.766" stroke="url(#paint2_linear_227_459)" stroke-opacity="0.4" stroke-width="9" stroke-linecap="round" stroke-linejoin="round"/>
<path d="M-244.899 470.9C-270.619 446.366 -259.819 400.42 -233.35 376.635C-206.881 352.851 -170.673 344.298 -136.901 333.061C-103.128 321.887 -67.7317 304.72 -52.8118 272.445C-34.5831 233.116 -52.6245 183.674 -32.8352 145.094C-14.1072 108.512 30.6528 95.5275 70.4187 85.1646C110.184 74.8018 154.82 59.0702 169.989 20.865C179.978 -4.35537 174.047 -32.6971 170.801 -59.6655C167.555 -86.6338 168.554 -117.41 188.093 -136.201C212.315 -159.486 251.207 -152.869 284.418 -158.112C338.854 -166.665 384.425 -214.983 389.794 -269.794" stroke="url(#paint3_linear_227_459)" stroke-opacity="0.4" stroke-width="9" stroke-linecap="round" stroke-linejoin="round"/>
<path d="M-213.186 495.807C-238.906 471.273 -228.106 425.327 -201.699 401.543C-175.293 377.758 -138.96 369.205 -105.188 358.031C-71.4146 346.857 -36.0187 329.689 -21.0987 297.415C-2.87007 258.086 -20.9114 208.644 -1.12211 170.064C17.6059 133.482 62.3659 120.497 102.132 110.134C141.898 99.7715 186.533 84.04 201.702 45.8348C211.691 20.6144 205.76 -7.72736 202.514 -34.6957C199.268 -61.6641 200.267 -92.4405 219.806 -111.231C244.028 -134.516 282.92 -127.899 316.131 -133.143C370.567 -141.695 416.138 -190.014 421.507 -244.824" stroke="url(#paint4_linear_227_459)" stroke-opacity="0.4" stroke-width="9" stroke-linecap="round" stroke-linejoin="round"/>
<path d="M-181.535 520.778C-207.255 496.244 -196.455 450.298 -169.987 426.513C-143.58 402.666 -107.31 394.176 -73.5372 382.939C-39.7643 371.702 -4.36836 354.597 10.5516 322.323C28.7802 282.994 10.7389 233.552 30.5282 194.972C49.2562 158.39 94.0162 145.405 133.782 135.043C173.548 124.68 218.183 108.948 233.353 70.743C243.341 45.5226 237.41 17.1808 234.164 -9.78753C230.918 -36.7559 231.917 -67.5323 251.456 -86.3227C275.678 -109.608 314.57 -102.991 347.781 -108.235C402.217 -116.787 447.789 -165.105 453.157 -219.916" stroke="url(#paint5_linear_227_459)" stroke-opacity="0.4" stroke-width="9" stroke-linecap="round" stroke-linejoin="round"/>
<path d="M-149.823 545.747C-175.543 521.214 -164.743 475.267 -138.274 451.483C-111.867 427.636 -75.5973 419.146 -41.8244 407.909C-8.05156 396.735 27.3444 379.567 42.2644 347.293C60.493 307.964 42.4517 258.522 62.241 219.942C80.969 183.36 125.729 170.375 165.495 160.012C205.261 149.649 249.896 133.918 265.066 95.7127C275.054 70.4923 269.123 42.1506 265.877 15.1822C262.631 -11.7862 263.63 -42.5626 283.169 -61.353C307.391 -84.6382 346.283 -78.021 379.494 -83.2648C433.93 -91.8173 479.501 -140.136 484.87 -194.946" stroke="url(#paint6_linear_227_459)" stroke-opacity="0.4" stroke-width="9" stroke-linecap="round" stroke-linejoin="round"/>
<path d="M-118.11 570.656C-143.83 546.123 -133.03 500.177 -106.623 476.392C-80.2168 452.545 -43.9468 444.055 -10.174 432.818C23.5989 421.644 58.9949 404.476 73.9149 372.202C92.1435 332.873 74.1022 283.431 93.8915 244.851C112.619 208.269 157.379 195.284 197.145 184.921C236.911 174.559 281.546 158.827 296.716 120.622C306.704 95.4015 300.774 67.0597 297.528 40.0914C294.281 13.123 295.28 -17.6534 314.82 -36.4438C339.041 -59.729 377.933 -53.1118 411.144 -58.3556C465.58 -66.9081 511.152 -115.226 516.521 -170.037" stroke="url(#paint7_linear_227_459)" stroke-opacity="0.4" stroke-width="9" stroke-linecap="round" stroke-linejoin="round"/>
<path d="M-86.3971 595.628C-112.117 571.094 -101.317 525.148 -74.8482 501.364C-48.4417 477.517 -12.1717 469.027 21.6012 457.79C55.3741 446.615 90.77 429.448 105.69 397.173C123.919 357.845 105.877 308.403 125.667 269.823C144.395 233.241 189.155 220.256 228.92 209.893C268.686 199.53 313.321 183.799 328.491 145.594C338.479 120.373 332.549 92.0314 329.303 65.0631C326.056 38.0947 327.055 7.31831 346.595 -11.4721C370.816 -34.7573 409.708 -28.1401 442.919 -33.384C497.355 -41.9364 542.927 -90.2547 548.296 -145.065" stroke="url(#paint8_linear_227_459)" stroke-opacity="0.4" stroke-width="9" stroke-linecap="round" stroke-linejoin="round"/>
<path d="M-54.7465 620.535C-80.4664 596.002 -69.6665 550.055 -43.1976 526.271C-16.7287 502.486 19.4789 493.934 53.2518 482.697C87.0246 471.523 122.421 454.355 137.341 422.081C155.569 382.752 137.528 333.31 157.317 294.73C176.045 258.148 220.805 245.163 260.571 234.8C300.337 224.438 344.972 208.706 360.142 170.501C370.13 145.28 364.199 116.939 360.953 89.9703C357.707 63.0019 358.706 32.2255 378.245 13.4351C402.467 -9.8501 441.359 -3.23288 474.57 -8.47673C529.006 -17.0292 574.578 -65.3475 579.946 -120.158" stroke="url(#paint9_linear_227_459)" stroke-opacity="0.4" stroke-width="9" stroke-linecap="round" stroke-linejoin="round"/>
<path d="M-23.0337 645.506C-48.7535 620.972 -37.9537 575.026 -11.4847 551.242C14.9218 527.395 51.1918 518.905 84.9646 507.668C118.738 496.431 154.133 479.326 169.053 447.051C187.282 407.723 169.241 358.28 189.03 319.701C207.758 283.119 252.518 270.134 292.284 259.771C332.05 249.408 376.685 233.677 391.855 195.471C401.843 170.251 395.912 141.909 392.666 114.941C389.42 87.9726 390.419 57.1962 409.958 38.4058C434.18 15.1206 473.072 21.7378 506.283 16.494C560.719 7.94152 606.29 -40.3768 611.659 -95.1875" stroke="url(#paint10_linear_227_459)" stroke-opacity="0.4" stroke-width="9" stroke-linecap="round" stroke-linejoin="round"/>
<path d="M8.67881 670.415C-17.041 645.882 -6.24118 599.935 20.2278 576.151C46.6343 552.304 82.9042 543.814 116.677 532.577C150.45 521.403 185.846 504.235 200.766 471.961C218.995 432.632 200.953 383.19 220.743 344.61C239.471 308.028 284.231 295.043 323.996 284.68C363.762 274.317 408.397 258.586 423.567 220.381C433.555 195.16 427.625 166.819 424.379 139.85C421.132 112.882 422.131 82.1054 441.671 63.315C465.892 40.0298 504.784 46.647 537.995 41.4032C592.431 32.8507 638.003 -15.4676 643.372 -70.2783" stroke="url(#paint11_linear_227_459)" stroke-opacity="0.4" stroke-width="9" stroke-linecap="round" stroke-linejoin="round"/>
<path d="M40.3916 695.385C14.6718 670.851 25.4716 624.905 51.8782 601.121C78.2847 577.336 114.555 568.783 148.328 557.547C182.1 546.372 217.496 529.205 232.416 496.93C250.645 457.601 232.604 408.159 252.393 369.58C271.121 332.998 315.881 320.013 355.647 309.65C395.413 299.287 440.048 283.556 455.217 245.35C465.206 220.13 459.275 191.788 456.029 164.82C452.783 137.852 453.782 107.075 473.321 88.2847C497.543 64.9995 536.435 71.6167 569.646 66.3729C624.082 57.8204 669.653 9.5021 675.022 -45.3086" stroke="url(#paint12_linear_227_459)" stroke-opacity="0.4" stroke-width="9" stroke-linecap="round" stroke-linejoin="round"/>
<path d="M72.042 720.293C46.3222 695.759 57.122 649.813 83.591 626.029C109.997 602.182 146.267 593.692 180.04 582.455C213.813 571.28 249.209 554.113 264.129 521.838C282.358 482.51 264.316 433.068 284.106 394.488C302.834 357.906 347.594 344.921 387.36 334.558C427.125 324.195 471.761 308.464 486.93 270.259C496.919 245.038 490.988 216.696 487.742 189.728C484.496 162.76 485.494 131.983 505.034 113.193C529.256 89.9077 568.147 96.5249 601.359 91.2811C655.795 82.7286 701.366 34.4103 706.735 -20.4004" stroke="url(#paint13_linear_227_459)" stroke-opacity="0.4" stroke-width="9" stroke-linecap="round" stroke-linejoin="round"/>
<path d="M103.755 745.264C78.0349 720.73 88.8347 674.784 115.304 650.999C141.71 627.152 177.98 618.662 211.753 607.426C245.526 596.251 280.922 579.084 295.842 546.809C314.07 507.48 296.029 458.038 315.818 419.459C334.546 382.877 379.306 369.892 419.072 359.529C458.838 349.166 503.473 333.434 518.643 295.229C528.631 270.009 522.701 241.667 519.454 214.699C516.208 187.73 517.207 156.954 536.747 138.164C560.968 114.878 599.86 121.496 633.071 116.252C687.507 107.699 733.079 59.381 738.448 4.57031" stroke="url(#paint14_linear_227_459)" stroke-opacity="0.4" stroke-width="9" stroke-linecap="round" stroke-linejoin="round"/>
<path d="M135.468 770.235C109.748 745.701 120.548 699.755 146.954 675.97C173.361 652.123 209.631 643.633 243.404 632.396C277.177 621.222 312.573 604.054 327.493 571.78C345.721 532.451 327.68 483.009 347.469 444.429C366.197 407.847 410.957 394.862 450.723 384.5C490.489 374.137 535.124 358.405 550.294 320.2C560.282 294.98 554.351 266.638 551.105 239.669C547.859 212.701 548.858 181.925 568.397 163.134C592.619 139.849 631.511 146.466 664.722 141.222C719.158 132.67 764.73 84.3517 770.098 29.541" stroke="url(#paint15_linear_227_459)" stroke-opacity="0.4" stroke-width="9" stroke-linecap="round" stroke-linejoin="round"/>
</g>
</g>
</g>
<defs>
<linearGradient id="paint0_linear_227_459" x1="-29.9629" y1="-344.645" x2="-29.9629" y2="396.049" gradientUnits="userSpaceOnUse">
<stop stop-color="#ABDC85" stop-opacity="0"/>
<stop offset="0.583333" stop-color="white"/>
</linearGradient>
<linearGradient id="paint1_linear_227_459" x1="1.68753" y1="-319.673" x2="1.68753" y2="421.021" gradientUnits="userSpaceOnUse">
<stop stop-color="#ABDC85" stop-opacity="0"/>
<stop offset="0.583333" stop-color="white"/>
</linearGradient>
<linearGradient id="paint2_linear_227_459" x1="33.4003" y1="-294.766" x2="33.4003" y2="445.928" gradientUnits="userSpaceOnUse">
<stop stop-color="#ABDC85" stop-opacity="0"/>
<stop offset="0.583333" stop-color="white"/>
</linearGradient>
<linearGradient id="paint3_linear_227_459" x1="65.1128" y1="-269.794" x2="65.1128" y2="470.9" gradientUnits="userSpaceOnUse">
<stop stop-color="#ABDC85" stop-opacity="0"/>
<stop offset="0.583333" stop-color="white"/>
</linearGradient>
<linearGradient id="paint4_linear_227_459" x1="96.8239" y1="-244.824" x2="96.8239" y2="495.807" gradientUnits="userSpaceOnUse">
<stop stop-color="#ABDC85" stop-opacity="0"/>
<stop offset="0.583333" stop-color="white"/>
</linearGradient>
<linearGradient id="paint5_linear_227_459" x1="128.476" y1="-219.916" x2="128.476" y2="520.778" gradientUnits="userSpaceOnUse">
<stop stop-color="#ABDC85" stop-opacity="0"/>
<stop offset="0.583333" stop-color="white"/>
</linearGradient>
<linearGradient id="paint6_linear_227_459" x1="160.189" y1="-194.946" x2="160.189" y2="545.747" gradientUnits="userSpaceOnUse">
<stop stop-color="#ABDC85" stop-opacity="0"/>
<stop offset="0.583333" stop-color="white"/>
</linearGradient>
<linearGradient id="paint7_linear_227_459" x1="191.869" y1="-170.037" x2="191.869" y2="570.656" gradientUnits="userSpaceOnUse">
<stop stop-color="#ABDC85" stop-opacity="0"/>
<stop offset="0.583333" stop-color="white"/>
</linearGradient>
<linearGradient id="paint8_linear_227_459" x1="223.615" y1="-145.065" x2="223.615" y2="595.628" gradientUnits="userSpaceOnUse">
<stop stop-color="#ABDC85" stop-opacity="0"/>
<stop offset="0.583333" stop-color="white"/>
</linearGradient>
<linearGradient id="paint9_linear_227_459" x1="255.265" y1="-120.158" x2="255.265" y2="620.535" gradientUnits="userSpaceOnUse">
<stop stop-color="#ABDC85" stop-opacity="0"/>
<stop offset="0.583333" stop-color="white"/>
</linearGradient>
<linearGradient id="paint10_linear_227_459" x1="286.978" y1="-95.1875" x2="286.978" y2="645.506" gradientUnits="userSpaceOnUse">
<stop stop-color="#ABDC85" stop-opacity="0"/>
<stop offset="0.583333" stop-color="white"/>
</linearGradient>
<linearGradient id="paint11_linear_227_459" x1="318.69" y1="-70.2783" x2="318.69" y2="670.415" gradientUnits="userSpaceOnUse">
<stop stop-color="#ABDC85" stop-opacity="0"/>
<stop offset="0.583333" stop-color="white"/>
</linearGradient>
<linearGradient id="paint12_linear_227_459" x1="350.37" y1="-45.3086" x2="350.37" y2="695.385" gradientUnits="userSpaceOnUse">
<stop stop-color="#ABDC85" stop-opacity="0"/>
<stop offset="0.583333" stop-color="white"/>
</linearGradient>
<linearGradient id="paint13_linear_227_459" x1="382.054" y1="-20.4004" x2="382.054" y2="720.293" gradientUnits="userSpaceOnUse">
<stop stop-color="#ABDC85" stop-opacity="0"/>
<stop offset="0.583333" stop-color="white"/>
</linearGradient>
<linearGradient id="paint14_linear_227_459" x1="413.766" y1="4.57031" x2="413.766" y2="745.264" gradientUnits="userSpaceOnUse">
<stop stop-color="#ABDC85" stop-opacity="0"/>
<stop offset="0.583333" stop-color="white"/>
</linearGradient>
<linearGradient id="paint15_linear_227_459" x1="445.446" y1="29.541" x2="445.446" y2="770.235" gradientUnits="userSpaceOnUse">
<stop stop-color="#ABDC85" stop-opacity="0"/>
<stop offset="0.583333" stop-color="white"/>
</linearGradient>
<clipPath id="clip0_227_459">
<rect width="375" height="812" fill="white"/>
</clipPath>
<clipPath id="clip1_227_459">
<rect width="586" height="586" fill="white" transform="translate(-105 -95)"/>
</clipPath>
</defs>
</svg>
