<svg width="667" height="667" viewBox="0 0 667 667" fill="none" xmlns="http://www.w3.org/2000/svg">
<g clip-path="url(#clip0_1_2)">
<path d="M0 666.667V6.00815e-05H666.667V666.667H0Z" fill="white"/>
<path d="M138.497 89.9694C134.691 85.6974 129.866 82.2468 125.093 79.8001C124.484 73.7374 123.708 67.4134 122.118 61.7427C121.249 58.6454 117.509 57.1921 114.699 58.8935C109.453 62.0721 105.207 65.7534 100.899 69.4494C96.6063 68.2694 91.9407 67.2988 87.4989 66.7921C84.1068 66.4054 81.2088 69.1694 81.6495 72.4494C82.3251 77.4774 84.3303 82.2628 86.0588 85.0961C83.3312 87.5975 80.0812 92.4708 77.7812 97.1908C76.3527 100.124 78.4489 103.544 81.7912 103.741C88.4735 104.136 96.3495 103.155 100.741 100.867C103.271 106.787 106.878 112.207 111.173 116.223C113.565 118.459 117.521 117.811 119.062 114.959C121.62 110.223 123.76 104.472 123.951 100.648C127.069 99.8787 132.884 98.1734 137.405 95.7734C139.593 94.6107 140.128 91.8001 138.497 89.9694Z" fill="white"/>
<path d="M138.497 89.9694C134.691 85.6974 129.866 82.2468 125.093 79.8001C124.484 73.7374 123.708 67.4134 122.118 61.7427C121.249 58.6454 117.509 57.1921 114.699 58.8935C109.453 62.0721 105.207 65.7534 100.899 69.4494C96.6063 68.2694 91.9407 67.2988 87.4989 66.7921C84.1068 66.4054 81.2088 69.1694 81.6495 72.4494C82.3251 77.4774 84.3303 82.2628 86.0588 85.0961C83.3312 87.5975 80.0812 92.4708 77.7812 97.1908C76.3527 100.124 78.4489 103.544 81.7912 103.741C88.4735 104.136 96.3495 103.155 100.741 100.867C103.271 106.787 106.878 112.207 111.173 116.223C113.565 118.459 117.521 117.811 119.062 114.959C121.62 110.223 123.76 104.472 123.951 100.648C127.069 99.8787 132.884 98.1734 137.405 95.7734C139.593 94.6107 140.128 91.8001 138.497 89.9694Z" stroke="#100F0D" stroke-width="1.33333" stroke-miterlimit="10" stroke-linecap="round" stroke-linejoin="round"/>
<path d="M576.349 552.624C572.144 547.905 566.812 544.091 561.539 541.388C560.867 534.689 560.009 527.703 558.252 521.437C557.293 518.015 553.16 516.408 550.056 518.289C544.259 521.8 539.567 525.868 534.808 529.952C530.065 528.648 524.909 527.576 520.001 527.016C516.255 526.588 513.052 529.643 513.539 533.267C514.285 538.822 516.501 544.109 518.411 547.24C515.397 550.004 511.807 555.388 509.265 560.603C507.687 563.844 510.003 567.622 513.696 567.841C521.079 568.276 529.781 567.193 534.633 564.664C537.429 571.205 541.413 577.193 546.16 581.632C548.801 584.103 553.173 583.386 554.876 580.234C557.703 575.003 560.067 568.649 560.277 564.422C563.723 563.573 570.148 561.689 575.143 559.036C577.561 557.752 578.151 554.646 576.349 552.624Z" fill="white"/>
<path d="M576.349 552.624C572.144 547.905 566.812 544.091 561.539 541.388C560.867 534.689 560.009 527.703 558.252 521.437C557.293 518.015 553.16 516.408 550.056 518.289C544.259 521.8 539.567 525.868 534.808 529.952C530.065 528.648 524.909 527.576 520.001 527.016C516.255 526.588 513.052 529.643 513.539 533.267C514.285 538.822 516.501 544.109 518.411 547.24C515.397 550.004 511.807 555.388 509.265 560.603C507.687 563.844 510.003 567.622 513.696 567.841C521.079 568.276 529.781 567.193 534.633 564.664C537.429 571.205 541.413 577.193 546.16 581.632C548.801 584.103 553.173 583.386 554.876 580.234C557.703 575.003 560.067 568.649 560.277 564.422C563.723 563.573 570.148 561.689 575.143 559.036C577.561 557.752 578.151 554.646 576.349 552.624Z" stroke="#100F0D" stroke-width="1.33333" stroke-miterlimit="10" stroke-linecap="round" stroke-linejoin="round"/>
<path d="M574.744 87.5627C569.784 86.5734 564.515 86.6227 559.805 87.312C556.219 83.5867 552.376 79.768 548.287 76.7774C546.052 75.144 542.603 75.992 541.461 78.4827C539.331 83.1334 538.183 87.632 536.999 92.1707C533.292 93.468 529.425 95.0853 525.961 96.9027C523.316 98.2893 522.664 101.527 524.684 103.488C527.781 106.496 531.711 108.697 534.428 109.74C533.761 112.72 533.949 117.528 534.743 121.773C535.236 124.411 538.523 125.663 541.033 124.175C546.053 121.197 551.219 116.731 553.196 113.085C558.093 115.785 563.505 117.633 568.687 118.215C571.571 118.54 574.085 116.193 573.715 113.555C573.099 109.173 571.656 104.323 569.807 101.693C571.655 99.6734 574.96 95.724 576.971 91.94C577.944 90.1093 576.869 87.9854 574.744 87.5627Z" fill="white"/>
<path d="M574.744 87.5627C569.784 86.5734 564.515 86.6227 559.805 87.312C556.219 83.5867 552.376 79.768 548.287 76.7774C546.052 75.144 542.603 75.992 541.461 78.4827C539.331 83.1334 538.183 87.632 536.999 92.1707C533.292 93.468 529.425 95.0853 525.961 96.9027C523.316 98.2893 522.664 101.527 524.684 103.488C527.781 106.496 531.711 108.697 534.428 109.74C533.761 112.72 533.949 117.528 534.743 121.773C535.236 124.411 538.523 125.663 541.033 124.175C546.053 121.197 551.219 116.731 553.196 113.085C558.093 115.785 563.505 117.633 568.687 118.215C571.571 118.54 574.085 116.193 573.715 113.555C573.099 109.173 571.656 104.323 569.807 101.693C571.655 99.6734 574.96 95.724 576.971 91.94C577.944 90.1093 576.869 87.9854 574.744 87.5627Z" stroke="#100F0D" stroke-width="1.33333" stroke-miterlimit="10" stroke-linecap="round" stroke-linejoin="round"/>
<path d="M102.599 582.336C99.1156 581.641 95.4151 581.676 92.1079 582.16C89.5891 579.544 86.8907 576.863 84.0188 574.763C82.4495 573.615 80.0271 574.21 79.2255 575.96C77.7292 579.225 76.9229 582.385 76.0912 585.572C73.488 586.484 70.7735 587.62 68.3412 588.895C66.4833 589.869 66.0245 592.143 67.4437 593.52C69.6188 595.632 72.3787 597.179 74.2864 597.91C73.8183 600.004 73.95 603.38 74.5073 606.36C74.8536 608.214 77.162 609.092 78.9251 608.047C82.4505 605.957 86.0781 602.82 87.4661 600.26C90.9057 602.156 94.7068 603.453 98.3448 603.863C100.37 604.091 102.136 602.443 101.875 600.589C101.444 597.514 100.43 594.107 99.1317 592.26C100.429 590.841 102.751 588.068 104.163 585.41C104.846 584.125 104.092 582.633 102.599 582.336Z" fill="white"/>
<path d="M102.599 582.336C99.1156 581.641 95.4151 581.676 92.1079 582.16C89.5891 579.544 86.8907 576.863 84.0188 574.763C82.4495 573.615 80.0271 574.21 79.2255 575.96C77.7292 579.225 76.9229 582.385 76.0912 585.572C73.488 586.484 70.7735 587.62 68.3412 588.895C66.4833 589.869 66.0245 592.143 67.4437 593.52C69.6188 595.632 72.3787 597.179 74.2864 597.91C73.8183 600.004 73.95 603.38 74.5073 606.36C74.8536 608.214 77.162 609.092 78.9251 608.047C82.4505 605.957 86.0781 602.82 87.4661 600.26C90.9057 602.156 94.7068 603.453 98.3448 603.863C100.37 604.091 102.136 602.443 101.875 600.589C101.444 597.514 100.43 594.107 99.1317 592.26C100.429 590.841 102.751 588.068 104.163 585.41C104.846 584.125 104.092 582.633 102.599 582.336Z" stroke="#100F0D" stroke-width="1.33333" stroke-miterlimit="10" stroke-linecap="round" stroke-linejoin="round"/>
<path d="M84.6593 418.335C83.7917 417.124 82.636 416.079 81.464 415.284C81.4807 413.755 81.462 412.153 81.212 410.683C81.0755 409.88 80.1437 409.372 79.3636 409.685C77.9057 410.268 76.6943 411.017 75.4661 411.767C74.3828 411.305 73.1964 410.881 72.0547 410.581C71.1833 410.352 70.3489 410.925 70.3688 411.757C70.3989 413.032 70.7828 414.3 71.1511 415.071C70.3688 415.585 69.3817 416.668 68.6464 417.751C68.1901 418.423 68.6364 419.355 69.5011 419.535C71.2287 419.893 73.3073 419.959 74.5167 419.563C75.0041 421.132 75.786 422.619 76.788 423.784C77.3459 424.433 78.3943 424.428 78.8781 423.779C79.6807 422.704 80.4041 421.359 80.564 420.417C81.3979 420.348 82.9609 420.152 84.2073 419.733C84.8104 419.529 85.0307 418.852 84.6593 418.335Z" fill="white"/>
<path d="M84.6593 418.335C83.7917 417.124 82.636 416.079 81.464 415.284C81.4807 413.755 81.462 412.153 81.212 410.683C81.0755 409.88 80.1437 409.372 79.3636 409.685C77.9057 410.268 76.6943 411.017 75.4661 411.767C74.3828 411.305 73.1964 410.881 72.0547 410.581C71.1833 410.352 70.3489 410.925 70.3688 411.757C70.3989 413.032 70.7828 414.3 71.1511 415.071C70.3688 415.585 69.3817 416.668 68.6464 417.751C68.1901 418.423 68.6364 419.355 69.5011 419.535C71.2287 419.893 73.3073 419.959 74.5167 419.563C75.0041 421.132 75.786 422.619 76.788 423.784C77.3459 424.433 78.3943 424.428 78.8781 423.779C79.6807 422.704 80.4041 421.359 80.564 420.417C81.3979 420.348 82.9609 420.152 84.2073 419.733C84.8104 419.529 85.0307 418.852 84.6593 418.335Z" stroke="#100F0D" stroke-width="1.33333" stroke-miterlimit="10" stroke-linecap="round" stroke-linejoin="round"/>
<path d="M212.855 567.888C212.921 565.532 212.468 563.132 211.755 561.048C213.241 559.061 214.752 556.948 215.847 554.8C216.444 553.627 215.757 552.132 214.475 551.847C212.079 551.312 209.836 551.212 207.572 551.1C206.649 549.531 205.561 547.919 204.411 546.509C203.532 545.433 201.932 545.44 201.16 546.547C199.976 548.244 199.245 550.244 198.969 551.581C197.492 551.559 195.211 552.097 193.248 552.859C192.028 553.332 191.697 554.949 192.615 555.956C194.445 557.965 197.001 559.901 198.904 560.46C198.013 562.949 197.573 565.593 197.719 568.012C197.799 569.359 199.125 570.284 200.355 569.867C202.397 569.173 204.597 568.057 205.701 566.967C206.817 567.62 208.973 568.756 210.945 569.317C211.9 569.588 212.825 568.898 212.855 567.888Z" fill="white"/>
<path d="M212.855 567.888C212.921 565.532 212.468 563.132 211.755 561.048C213.241 559.061 214.752 556.948 215.847 554.8C216.444 553.627 215.757 552.132 214.475 551.847C212.079 551.312 209.836 551.212 207.572 551.1C206.649 549.531 205.561 547.919 204.411 546.509C203.532 545.433 201.932 545.44 201.16 546.547C199.976 548.244 199.245 550.244 198.969 551.581C197.492 551.559 195.211 552.097 193.248 552.859C192.028 553.332 191.697 554.949 192.615 555.956C194.445 557.965 197.001 559.901 198.904 560.46C198.013 562.949 197.573 565.593 197.719 568.012C197.799 569.359 199.125 570.284 200.355 569.867C202.397 569.173 204.597 568.057 205.701 566.967C206.817 567.62 208.973 568.756 210.945 569.317C211.9 569.588 212.825 568.898 212.855 567.888Z" stroke="#100F0D" stroke-width="1.33333" stroke-miterlimit="10" stroke-linecap="round" stroke-linejoin="round"/>
<path d="M78.5969 218.347C77.2057 217.751 75.6563 217.441 74.2287 217.355C73.4203 216.041 72.5421 214.684 71.538 213.556C70.989 212.939 69.9213 212.976 69.4229 213.637C68.4932 214.871 67.8615 216.121 67.2167 217.38C66.0437 217.533 64.8036 217.771 63.6683 218.091C62.8011 218.336 62.3969 219.245 62.862 219.945C63.574 221.019 64.5828 221.907 65.312 222.379C64.9213 223.212 64.6615 224.635 64.6167 225.929C64.5885 226.735 65.4713 227.304 66.3057 227.021C67.974 226.456 69.7823 225.461 70.6016 224.513C71.862 225.607 73.3297 226.481 74.812 226.971C75.6369 227.243 76.5287 226.708 76.5927 225.911C76.6989 224.588 76.5932 223.076 76.2229 222.191C76.8973 221.711 78.126 220.755 78.9636 219.768C79.3693 219.291 79.1932 218.601 78.5969 218.347Z" fill="white"/>
<path d="M78.5969 218.347C77.2057 217.751 75.6563 217.441 74.2287 217.355C73.4203 216.041 72.5421 214.684 71.538 213.556C70.989 212.939 69.9213 212.976 69.4229 213.637C68.4932 214.871 67.8615 216.121 67.2167 217.38C66.0437 217.533 64.8036 217.771 63.6683 218.091C62.8011 218.336 62.3969 219.245 62.862 219.945C63.574 221.019 64.5828 221.907 65.312 222.379C64.9213 223.212 64.6615 224.635 64.6167 225.929C64.5885 226.735 65.4713 227.304 66.3057 227.021C67.974 226.456 69.7823 225.461 70.6016 224.513C71.862 225.607 73.3297 226.481 74.812 226.971C75.6369 227.243 76.5287 226.708 76.5927 225.911C76.6989 224.588 76.5932 223.076 76.2229 222.191C76.8973 221.711 78.126 220.755 78.9636 219.768C79.3693 219.291 79.1932 218.601 78.5969 218.347Z" stroke="#100F0D" stroke-width="1.33333" stroke-miterlimit="10" stroke-linecap="round" stroke-linejoin="round"/>
<path d="M170.708 178.085C171.872 177.137 172.84 175.925 173.549 174.721C175.123 174.596 176.767 174.429 178.256 174.052C179.069 173.847 179.504 172.901 179.111 172.177C178.376 170.825 177.495 169.727 176.611 168.612C176.984 167.524 177.309 166.341 177.512 165.212C177.667 164.351 177.001 163.599 176.147 163.696C174.839 163.843 173.572 164.331 172.813 164.756C172.212 164.049 171.007 163.199 169.827 162.589C169.093 162.211 168.176 162.728 168.072 163.579C167.861 165.277 167.988 167.288 168.507 168.417C166.939 169.033 165.483 169.925 164.376 170.999C163.761 171.597 163.864 172.608 164.575 173.013C165.756 173.688 167.205 174.261 168.188 174.329C168.336 175.127 168.683 176.616 169.229 177.779C169.493 178.341 170.209 178.491 170.708 178.085Z" fill="white"/>
<path d="M170.708 178.085C171.872 177.137 172.84 175.925 173.549 174.721C175.123 174.596 176.767 174.429 178.256 174.052C179.069 173.847 179.504 172.901 179.111 172.177C178.376 170.825 177.495 169.727 176.611 168.612C176.984 167.524 177.309 166.341 177.512 165.212C177.667 164.351 177.001 163.599 176.147 163.696C174.839 163.843 173.572 164.331 172.813 164.756C172.212 164.049 171.007 163.199 169.827 162.589C169.093 162.211 168.176 162.728 168.072 163.579C167.861 165.277 167.988 167.288 168.507 168.417C166.939 169.033 165.483 169.925 164.376 170.999C163.761 171.597 163.864 172.608 164.575 173.013C165.756 173.688 167.205 174.261 168.188 174.329C168.336 175.127 168.683 176.616 169.229 177.779C169.493 178.341 170.209 178.491 170.708 178.085Z" stroke="#100F0D" stroke-width="1.33333" stroke-miterlimit="10" stroke-linecap="round" stroke-linejoin="round"/>
<path d="M406.829 69.7453C405.704 68.7547 404.336 67.984 403.011 67.464C402.675 65.9693 402.287 64.4134 401.703 63.0334C401.385 62.2814 400.36 61.988 399.671 62.4613C398.385 63.3453 397.377 64.3374 396.353 65.3334C395.191 65.1187 393.936 64.9627 392.755 64.9173C391.852 64.8827 391.171 65.6213 391.383 66.428C391.707 67.664 392.372 68.816 392.909 69.488C392.265 70.16 391.553 71.428 391.087 72.6427C390.797 73.3973 391.447 74.208 392.331 74.196C394.099 74.1734 396.139 73.7854 397.227 73.1387C398.064 74.5614 399.169 75.8427 400.415 76.7613C401.108 77.2733 402.128 77.04 402.451 76.304C402.985 75.0813 403.38 73.6147 403.319 72.6613C404.115 72.4147 405.593 71.8853 406.711 71.2067C407.252 70.8787 407.311 70.1707 406.829 69.7453Z" fill="white"/>
<path d="M406.829 69.7453C405.704 68.7547 404.336 67.984 403.011 67.464C402.675 65.9693 402.287 64.4134 401.703 63.0334C401.385 62.2814 400.36 61.988 399.671 62.4613C398.385 63.3453 397.377 64.3374 396.353 65.3334C395.191 65.1187 393.936 64.9627 392.755 64.9173C391.852 64.8827 391.171 65.6213 391.383 66.428C391.707 67.664 392.372 68.816 392.909 69.488C392.265 70.16 391.553 71.428 391.087 72.6427C390.797 73.3973 391.447 74.208 392.331 74.196C394.099 74.1734 396.139 73.7854 397.227 73.1387C398.064 74.5614 399.169 75.8427 400.415 76.7613C401.108 77.2733 402.128 77.04 402.451 76.304C402.985 75.0813 403.38 73.6147 403.319 72.6613C404.115 72.4147 405.593 71.8853 406.711 71.2067C407.252 70.8787 407.311 70.1707 406.829 69.7453Z" stroke="#100F0D" stroke-width="1.33333" stroke-miterlimit="10" stroke-linecap="round" stroke-linejoin="round"/>
<path d="M583.695 227.659C584.751 226.6 585.585 225.297 586.163 224.029C587.715 223.748 589.332 223.419 590.772 222.895C591.56 222.608 591.892 221.625 591.424 220.944C590.548 219.673 589.555 218.668 588.557 217.647C588.813 216.528 589.011 215.319 589.092 214.176C589.155 213.303 588.412 212.623 587.573 212.803C586.288 213.08 585.08 213.692 584.369 214.191C583.697 213.548 582.408 212.821 581.168 212.333C580.399 212.031 579.543 212.637 579.528 213.493C579.5 215.204 579.84 217.191 580.476 218.263C578.981 219.032 577.628 220.064 576.643 221.243C576.093 221.899 576.304 222.893 577.055 223.227C578.3 223.78 579.803 224.205 580.788 224.175C581.02 224.953 581.523 226.4 582.191 227.501C582.513 228.036 583.241 228.113 583.695 227.659Z" fill="white"/>
<path d="M583.695 227.659C584.751 226.6 585.585 225.297 586.163 224.029C587.715 223.748 589.332 223.419 590.772 222.895C591.56 222.608 591.892 221.625 591.424 220.944C590.548 219.673 589.555 218.668 588.557 217.647C588.813 216.528 589.011 215.319 589.092 214.176C589.155 213.303 588.412 212.623 587.573 212.803C586.288 213.08 585.08 213.692 584.369 214.191C583.697 213.548 582.408 212.821 581.168 212.333C580.399 212.031 579.543 212.637 579.528 213.493C579.5 215.204 579.84 217.191 580.476 218.263C578.981 219.032 577.628 220.064 576.643 221.243C576.093 221.899 576.304 222.893 577.055 223.227C578.3 223.78 579.803 224.205 580.788 224.175C581.02 224.953 581.523 226.4 582.191 227.501C582.513 228.036 583.241 228.113 583.695 227.659Z" stroke="#100F0D" stroke-width="1.33333" stroke-miterlimit="10" stroke-linecap="round" stroke-linejoin="round"/>
<path d="M603.24 367.132C601.757 366.808 600.175 366.795 598.756 366.976C597.701 365.837 596.571 364.671 595.36 363.749C594.699 363.247 593.659 363.483 593.301 364.224C592.635 365.609 592.263 366.953 591.881 368.309C590.761 368.679 589.591 369.143 588.54 369.669C587.739 370.071 587.523 371.04 588.119 371.64C589.031 372.56 590.197 373.243 591.007 373.569C590.789 374.461 590.817 375.905 591.032 377.184C591.164 377.979 592.144 378.372 592.905 377.94C594.431 377.073 596.007 375.76 596.621 374.677C598.076 375.515 599.691 376.099 601.243 376.301C602.107 376.415 602.875 375.724 602.779 374.929C602.62 373.612 602.215 372.147 601.676 371.348C602.241 370.751 603.257 369.584 603.883 368.459C604.185 367.915 603.876 367.271 603.24 367.132Z" fill="white"/>
<path d="M603.24 367.132C601.757 366.808 600.175 366.795 598.756 366.976C597.701 365.837 596.571 364.671 595.36 363.749C594.699 363.247 593.659 363.483 593.301 364.224C592.635 365.609 592.263 366.953 591.881 368.309C590.761 368.679 589.591 369.143 588.54 369.669C587.739 370.071 587.523 371.04 588.119 371.64C589.031 372.56 590.197 373.243 591.007 373.569C590.789 374.461 590.817 375.905 591.032 377.184C591.164 377.979 592.144 378.372 592.905 377.94C594.431 377.073 596.007 375.76 596.621 374.677C598.076 375.515 599.691 376.099 601.243 376.301C602.107 376.415 602.875 375.724 602.779 374.929C602.62 373.612 602.215 372.147 601.676 371.348C602.241 370.751 603.257 369.584 603.883 368.459C604.185 367.915 603.876 367.271 603.24 367.132Z" stroke="#100F0D" stroke-width="1.33333" stroke-miterlimit="10" stroke-linecap="round" stroke-linejoin="round"/>
<path d="M437.701 581.995C436.219 581.671 434.636 581.657 433.219 581.839C432.163 580.7 431.032 579.532 429.821 578.612C429.16 578.109 428.12 578.345 427.763 579.086C427.096 580.471 426.725 581.816 426.343 583.172C425.223 583.541 424.052 584.005 423.001 584.532C422.2 584.933 421.985 585.903 422.58 586.503C423.492 587.422 424.659 588.104 425.469 588.432C425.251 589.324 425.28 590.768 425.493 592.047C425.625 592.841 426.605 593.234 427.368 592.802C428.892 591.936 430.469 590.622 431.084 589.539C432.539 590.377 434.152 590.961 435.704 591.164C436.568 591.277 437.337 590.586 437.241 589.792C437.081 588.473 436.677 587.009 436.137 586.21C436.704 585.614 437.719 584.447 438.345 583.321C438.648 582.777 438.337 582.133 437.701 581.995Z" fill="white"/>
<path d="M437.701 581.995C436.219 581.671 434.636 581.657 433.219 581.839C432.163 580.7 431.032 579.532 429.821 578.612C429.16 578.109 428.12 578.345 427.763 579.086C427.096 580.471 426.725 581.816 426.343 583.172C425.223 583.541 424.052 584.005 423.001 584.532C422.2 584.933 421.985 585.903 422.58 586.503C423.492 587.422 424.659 588.104 425.469 588.432C425.251 589.324 425.28 590.768 425.493 592.047C425.625 592.841 426.605 593.234 427.368 592.802C428.892 591.936 430.469 590.622 431.084 589.539C432.539 590.377 434.152 590.961 435.704 591.164C436.568 591.277 437.337 590.586 437.241 589.792C437.081 588.473 436.677 587.009 436.137 586.21C436.704 585.614 437.719 584.447 438.345 583.321C438.648 582.777 438.337 582.133 437.701 581.995Z" stroke="#100F0D" stroke-width="1.33333" stroke-miterlimit="10" stroke-linecap="round" stroke-linejoin="round"/>
<path d="M529.699 467.247C529.359 465.811 528.687 464.424 527.905 463.264C528.508 461.851 529.105 460.357 529.439 458.903C529.621 458.108 528.951 457.301 528.107 457.309C526.529 457.327 525.117 457.584 523.689 457.837C522.861 457.019 521.923 456.197 520.979 455.508C520.257 454.981 519.263 455.212 518.961 455.992C518.5 457.187 518.369 458.5 518.415 459.349C517.491 459.544 516.159 460.193 515.06 460.933C514.377 461.393 514.435 462.419 515.168 462.897C516.633 463.853 518.537 464.663 519.812 464.731C519.661 466.363 519.816 468.025 520.299 469.468C520.567 470.272 521.541 470.644 522.24 470.217C523.399 469.508 524.587 468.521 525.097 467.704C525.897 467.94 527.424 468.321 528.741 468.381C529.379 468.411 529.844 467.861 529.699 467.247Z" fill="white"/>
<path d="M529.699 467.247C529.359 465.811 528.687 464.424 527.905 463.264C528.508 461.851 529.105 460.357 529.439 458.903C529.621 458.108 528.951 457.301 528.107 457.309C526.529 457.327 525.117 457.584 523.689 457.837C522.861 457.019 521.923 456.197 520.979 455.508C520.257 454.981 519.263 455.212 518.961 455.992C518.5 457.187 518.369 458.5 518.415 459.349C517.491 459.544 516.159 460.193 515.06 460.933C514.377 461.393 514.435 462.419 515.168 462.897C516.633 463.853 518.537 464.663 519.812 464.731C519.661 466.363 519.816 468.025 520.299 469.468C520.567 470.272 521.541 470.644 522.24 470.217C523.399 469.508 524.587 468.521 525.097 467.704C525.897 467.94 527.424 468.321 528.741 468.381C529.379 468.411 529.844 467.861 529.699 467.247Z" stroke="#100F0D" stroke-width="1.33333" stroke-miterlimit="10" stroke-linecap="round" stroke-linejoin="round"/>
<path d="M542.139 318.793C541.704 316.96 540.847 315.187 539.847 313.705C540.617 311.899 541.381 309.992 541.807 308.133C542.039 307.119 541.184 306.088 540.105 306.099C538.089 306.12 536.285 306.449 534.461 306.772C533.404 305.727 532.205 304.677 530.999 303.797C530.077 303.124 528.807 303.419 528.421 304.415C527.832 305.941 527.665 307.62 527.723 308.704C526.543 308.953 524.841 309.783 523.437 310.728C522.567 311.315 522.639 312.625 523.575 313.236C525.448 314.459 527.88 315.492 529.509 315.579C529.316 317.664 529.513 319.788 530.129 321.632C530.472 322.659 531.719 323.133 532.609 322.588C534.091 321.681 535.608 320.421 536.26 319.377C537.283 319.68 539.232 320.167 540.916 320.244C541.731 320.281 542.324 319.579 542.139 318.793Z" fill="white"/>
<path d="M542.139 318.793C541.704 316.96 540.847 315.187 539.847 313.705C540.617 311.899 541.381 309.992 541.807 308.133C542.039 307.119 541.184 306.088 540.105 306.099C538.089 306.12 536.285 306.449 534.461 306.772C533.404 305.727 532.205 304.677 530.999 303.797C530.077 303.124 528.807 303.419 528.421 304.415C527.832 305.941 527.665 307.62 527.723 308.704C526.543 308.953 524.841 309.783 523.437 310.728C522.567 311.315 522.639 312.625 523.575 313.236C525.448 314.459 527.88 315.492 529.509 315.579C529.316 317.664 529.513 319.788 530.129 321.632C530.472 322.659 531.719 323.133 532.609 322.588C534.091 321.681 535.608 320.421 536.26 319.377C537.283 319.68 539.232 320.167 540.916 320.244C541.731 320.281 542.324 319.579 542.139 318.793Z" stroke="#100F0D" stroke-width="1.33333" stroke-miterlimit="10" stroke-linecap="round" stroke-linejoin="round"/>
<path d="M371.757 234.793C371.757 234.793 214.224 207.645 201.253 225.999C188.283 244.352 154.795 406.621 174.832 417.345C194.868 428.069 292.6 441.652 292.6 441.652L371.757 234.793Z" fill="white"/>
<path d="M371.757 234.793C371.757 234.793 214.224 207.645 201.253 225.999C188.283 244.352 154.795 406.621 174.832 417.345C194.868 428.069 292.6 441.652 292.6 441.652L371.757 234.793Z" stroke="#100F0D" stroke-width="2.66667" stroke-miterlimit="10" stroke-linecap="round" stroke-linejoin="round"/>
<path d="M489.495 386.98C495.611 381.612 503.236 377.981 511.259 376.617C514.915 375.996 518.719 375.844 522.293 376.832C525.868 377.821 529.204 380.057 530.949 383.329C532.695 386.603 532.585 390.94 530.212 393.791" fill="white"/>
<path d="M489.495 386.98C495.611 381.612 503.236 377.981 511.259 376.617C514.915 375.996 518.719 375.844 522.293 376.832C525.868 377.821 529.204 380.057 530.949 383.329C532.695 386.603 532.585 390.94 530.212 393.791" stroke="#100F0D" stroke-width="2.66667" stroke-miterlimit="10" stroke-linecap="round" stroke-linejoin="round"/>
<path d="M519.3 384.956C519.3 384.956 537.856 380.56 544.787 388.331C547.071 390.891 548.515 394.671 546.812 398.663C541.743 400.067 536.545 401.007 531.305 401.467" fill="white"/>
<path d="M519.3 384.956C519.3 384.956 537.856 380.56 544.787 388.331C547.071 390.891 548.515 394.671 546.812 398.663C541.743 400.067 536.545 401.007 531.305 401.467" stroke="#100F0D" stroke-width="2.66667" stroke-miterlimit="10" stroke-linecap="round" stroke-linejoin="round"/>
<path d="M523.609 393.203C528.252 393.037 532.949 392.875 537.496 393.831C542.043 394.787 546.495 396.991 549.247 400.735C551.999 404.477 552.684 409.916 551.365 414.877C544.472 414.513 537.503 415.651 531.081 418.187" fill="white"/>
<path d="M523.609 393.203C528.252 393.037 532.949 392.875 537.496 393.831C542.043 394.787 546.495 396.991 549.247 400.735C551.999 404.477 552.684 409.916 551.365 414.877C544.472 414.513 537.503 415.651 531.081 418.187" stroke="#100F0D" stroke-width="2.66667" stroke-miterlimit="10" stroke-linecap="round" stroke-linejoin="round"/>
<path d="M459.112 434.788C460.727 444.663 465.365 454.023 473.268 462.167C473.18 465.068 473.104 468.048 474.075 470.784C475.045 473.519 477.315 475.995 480.197 476.328C482.168 476.557 484.149 475.761 485.728 474.56C489.079 472.008 490.796 467.76 491.204 463.568C491.612 459.376 490.865 455.167 492.469 450.808C505.169 437.767 522.276 429.096 540.303 426.56C545.172 425.876 550.296 425.563 554.512 423.028C558.727 420.493 561.559 414.783 559.067 410.543C557.389 407.689 553.953 406.432 550.727 405.699C543.239 403.996 535.369 403.988 527.877 405.673" fill="white"/>
<path d="M459.112 434.788C460.727 444.663 465.365 454.023 473.268 462.167C473.18 465.068 473.104 468.048 474.075 470.784C475.045 473.519 477.315 475.995 480.197 476.328C482.168 476.557 484.149 475.761 485.728 474.56C489.079 472.008 490.796 467.76 491.204 463.568C491.612 459.376 490.865 455.167 492.469 450.808C505.169 437.767 522.276 429.096 540.303 426.56C545.172 425.876 550.296 425.563 554.512 423.028C558.727 420.493 561.559 414.783 559.067 410.543C557.389 407.689 553.953 406.432 550.727 405.699C543.239 403.996 535.369 403.988 527.877 405.673" stroke="#100F0D" stroke-width="2.66667" stroke-miterlimit="10" stroke-linecap="round" stroke-linejoin="round"/>
<path d="M503.556 414.159C508.203 409.223 509.588 399.228 509.556 392.449C507.775 379.539 502.944 370.823 495.896 362.839C478.12 360.04 457.635 364.836 446.869 377.044C436.105 389.252 433.987 409.512 438.019 426.244C443.581 431.937 453.104 437.424 461.048 439.884C467.099 439.764 473.123 438.437 478.664 436.005" fill="white"/>
<path d="M503.556 414.159C508.203 409.223 509.588 399.228 509.556 392.449C507.775 379.539 502.944 370.823 495.896 362.839C478.12 360.04 457.635 364.836 446.869 377.044C436.105 389.252 433.987 409.512 438.019 426.244C443.581 431.937 453.104 437.424 461.048 439.884C467.099 439.764 473.123 438.437 478.664 436.005" stroke="#100F0D" stroke-width="2.66667" stroke-miterlimit="10" stroke-linecap="round" stroke-linejoin="round"/>
<path d="M436.153 317.852C462.839 333.495 479.344 350.807 492.672 377.252C497.796 411.2 473.237 427.899 446.905 421.127C433.035 409.401 427.5 406.669 409.68 397.136C411.777 368.723 420.591 340.825 436.153 317.852Z" fill="white"/>
<path d="M436.153 317.852C462.839 333.495 479.344 350.807 492.672 377.252C497.796 411.2 473.237 427.899 446.905 421.127C433.035 409.401 427.5 406.669 409.68 397.136C411.777 368.723 420.591 340.825 436.153 317.852Z" stroke="#100F0D" stroke-width="2.66667" stroke-miterlimit="10" stroke-linecap="round" stroke-linejoin="round"/>
<path d="M428.929 408.86C444.088 407.543 458.331 398.271 465.668 384.941C473.005 371.612 473.223 354.617 466.227 341.105" stroke="#100F0D" stroke-width="1.33333" stroke-miterlimit="10" stroke-linecap="round" stroke-linejoin="round"/>
<path d="M292.912 581.263C289.281 584.649 284.409 586.672 279.448 586.852C274.488 587.032 266.823 584.84 262.591 582.247C245.343 571.679 252.184 535.155 258.92 514.601C263.631 500.228 271.345 483.265 283.471 475.273C289.951 471.001 300.045 472.849 306.571 477.051C309.033 478.637 311.295 480.707 313.231 483.249C298.692 513.283 291.844 547 292.912 581.263Z" fill="white"/>
<path d="M292.912 581.263C289.281 584.649 284.409 586.672 279.448 586.852C274.488 587.032 266.823 584.84 262.591 582.247C245.343 571.679 252.184 535.155 258.92 514.601C263.631 500.228 271.345 483.265 283.471 475.273C289.951 471.001 300.045 472.849 306.571 477.051C309.033 478.637 311.295 480.707 313.231 483.249C298.692 513.283 291.844 547 292.912 581.263Z" stroke="#100F0D" stroke-width="2.66667" stroke-miterlimit="10" stroke-linecap="round" stroke-linejoin="round"/>
<path d="M320.969 558.039C315.491 566.517 302.612 578.003 295.191 580.957C287.769 583.91 278.827 583.785 272.651 578.447C268.631 574.973 266.197 569.661 265.163 564.184C264.127 558.707 264.376 553.034 264.951 547.472C266.665 530.843 271.257 514.563 278.413 499.739C281.5 493.347 285.252 487.007 290.877 483.18C296.835 479.128 304.597 478.421 311.073 481.343C317.549 484.264 322.568 490.736 324.119 498.261C323.119 521.315 325.717 535.343 320.969 558.039Z" fill="white"/>
<path d="M320.969 558.039C315.491 566.517 302.612 578.003 295.191 580.957C287.769 583.91 278.827 583.785 272.651 578.447C268.631 574.973 266.197 569.661 265.163 564.184C264.127 558.707 264.376 553.034 264.951 547.472C266.665 530.843 271.257 514.563 278.413 499.739C281.5 493.347 285.252 487.007 290.877 483.18C296.835 479.128 304.597 478.421 311.073 481.343C317.549 484.264 322.568 490.736 324.119 498.261C323.119 521.315 325.717 535.343 320.969 558.039Z" stroke="#100F0D" stroke-width="2.66667" stroke-miterlimit="10" stroke-linecap="round" stroke-linejoin="round"/>
<path d="M336.389 556.771C330.631 563.24 319.307 567.255 311.307 564.531C291.955 557.941 285.555 532.479 284.951 518.793C284.431 507.027 287.868 484.085 301.264 475.885C307.061 472.337 316.347 475.552 322.533 479.521C324.677 504.383 329.239 529.055 336.389 556.771Z" fill="white"/>
<path d="M336.389 556.771C330.631 563.24 319.307 567.255 311.307 564.531C291.955 557.941 285.555 532.479 284.951 518.793C284.431 507.027 287.868 484.085 301.264 475.885C307.061 472.337 316.347 475.552 322.533 479.521C324.677 504.383 329.239 529.055 336.389 556.771Z" stroke="#100F0D" stroke-width="2.66667" stroke-miterlimit="10" stroke-linecap="round" stroke-linejoin="round"/>
<path d="M292.601 487.796C296.168 487.671 299.761 488.341 303.043 489.744" stroke="#100F0D" stroke-width="1.33333" stroke-miterlimit="10" stroke-linecap="round" stroke-linejoin="round"/>
<path d="M285.367 518.883C289.732 518.959 294.099 519.033 298.464 519.109" stroke="#100F0D" stroke-width="1.33333" stroke-miterlimit="10" stroke-linecap="round" stroke-linejoin="round"/>
<path d="M295.937 552.081C300.328 552.312 304.785 550.567 307.852 547.416" stroke="#100F0D" stroke-width="1.33333" stroke-miterlimit="10" stroke-linecap="round" stroke-linejoin="round"/>
<path d="M312.303 563.959C315.701 562.777 318.796 560.733 321.217 558.071" stroke="#100F0D" stroke-width="1.33333" stroke-miterlimit="10" stroke-linecap="round" stroke-linejoin="round"/>
<path d="M327.368 559.08C327.368 559.08 305.777 557.405 300.187 527.673C296.12 506.033 301.229 488.064 312.716 478.303C319.491 473.873 324.252 472.248 331.353 470.02C346.236 478.152 357.508 493.271 362.201 507.496C366.895 521.721 367.057 539.939 359.689 552.533C349.849 556.181 327.368 559.08 327.368 559.08Z" fill="white"/>
<path d="M327.368 559.08C327.368 559.08 305.777 557.405 300.187 527.673C296.12 506.033 301.229 488.064 312.716 478.303C319.491 473.873 324.252 472.248 331.353 470.02C346.236 478.152 357.508 493.271 362.201 507.496C366.895 521.721 367.057 539.939 359.689 552.533C349.849 556.181 327.368 559.08 327.368 559.08Z" stroke="#100F0D" stroke-width="2.66667" stroke-miterlimit="10" stroke-linecap="round" stroke-linejoin="round"/>
<path d="M416.027 398.692C420.956 428.456 421.469 461.508 419.163 492.548C417.837 510.371 407.96 529.9 391.752 534.657C381.768 537.588 359.839 540 347.751 541.253C329.527 543.144 313 516.171 317.333 493.371C317.797 490.929 319.388 488.856 321.529 487.596C324.297 485.968 327.511 483.945 330.811 481.328C329.064 474.569 326.237 468.904 320.643 456.969C351.776 436.941 383.937 418.515 416.027 398.692Z" fill="white"/>
<path d="M416.027 398.692C420.956 428.456 421.469 461.508 419.163 492.548C417.837 510.371 407.96 529.9 391.752 534.657C381.768 537.588 359.839 540 347.751 541.253C329.527 543.144 313 516.171 317.333 493.371C317.797 490.929 319.388 488.856 321.529 487.596C324.297 485.968 327.511 483.945 330.811 481.328C329.064 474.569 326.237 468.904 320.643 456.969C351.776 436.941 383.937 418.515 416.027 398.692Z" stroke="#100F0D" stroke-width="2.66667" stroke-miterlimit="10" stroke-linecap="round" stroke-linejoin="round"/>
<path d="M159.812 533.624C155.933 536.424 150.992 537.82 146.163 537.481C141.332 537.143 134.129 534.307 130.299 531.444C114.69 519.783 125.192 486.273 133.901 467.712C139.992 454.731 149.271 439.632 161.877 433.387C168.615 430.048 178.209 432.811 184.093 437.412C186.315 439.151 188.288 441.32 189.897 443.9C172.616 470.543 162.404 501.423 159.812 533.624Z" fill="white"/>
<path d="M159.812 533.624C155.933 536.424 150.992 537.82 146.163 537.481C141.332 537.143 134.129 534.307 130.299 531.444C114.69 519.783 125.192 486.273 133.901 467.712C139.992 454.731 149.271 439.632 161.877 433.387C168.615 430.048 178.209 432.811 184.093 437.412C186.315 439.151 188.288 441.32 189.897 443.9C172.616 470.543 162.404 501.423 159.812 533.624Z" stroke="#100F0D" stroke-width="2.66667" stroke-miterlimit="10" stroke-linecap="round" stroke-linejoin="round"/>
<path d="M190.867 513.571C184.536 521.321 170.561 531.228 162.901 533.332C155.24 535.436 146.405 534.347 140.867 528.427C137.263 524.575 135.425 519.085 134.988 513.585C134.552 508.084 135.408 502.529 136.572 497.12C140.055 480.944 146.345 465.424 155.017 451.613C158.756 445.657 163.149 439.827 169.125 436.669C175.455 433.327 183.212 433.471 189.307 437.045C195.4 440.619 199.671 447.529 200.399 455.1C196.935 477.672 198 491.756 190.867 513.571Z" fill="white"/>
<path d="M190.867 513.571C184.536 521.321 170.561 531.228 162.901 533.332C155.24 535.436 146.405 534.347 140.867 528.427C137.263 524.575 135.425 519.085 134.988 513.585C134.552 508.084 135.408 502.529 136.572 497.12C140.055 480.944 146.345 465.424 155.017 451.613C158.756 445.657 163.149 439.827 169.125 436.669C175.455 433.327 183.212 433.471 189.307 437.045C195.4 440.619 199.671 447.529 200.399 455.1C196.935 477.672 198 491.756 190.867 513.571Z" stroke="#100F0D" stroke-width="2.66667" stroke-miterlimit="10" stroke-linecap="round" stroke-linejoin="round"/>
<path d="M199.995 521.359C192.564 525.807 180.557 526.247 173.739 521.253C157.248 509.172 158.764 482.961 162.284 469.723C165.311 458.341 175.459 437.48 190.695 433.667C197.289 432.016 205.187 437.864 209.9 443.503C204.503 467.867 201.468 492.772 199.995 521.359Z" fill="white"/>
<path d="M199.995 521.359C192.564 525.807 180.557 526.247 173.739 521.253C157.248 509.172 158.764 482.961 162.284 469.723C165.311 458.341 175.459 437.48 190.695 433.667C197.289 432.016 205.187 437.864 209.9 443.503C204.503 467.867 201.468 492.772 199.995 521.359Z" stroke="#100F0D" stroke-width="2.66667" stroke-miterlimit="10" stroke-linecap="round" stroke-linejoin="round"/>
<path d="M178.863 442.437C182.304 443.385 185.532 445.101 188.243 447.423" stroke="#100F0D" stroke-width="1.33333" stroke-miterlimit="10" stroke-linecap="round" stroke-linejoin="round"/>
<path d="M162.653 469.933C166.797 471.312 170.94 472.691 175.084 474.069" stroke="#100F0D" stroke-width="1.33333" stroke-miterlimit="10" stroke-linecap="round" stroke-linejoin="round"/>
<path d="M162.801 504.773C166.921 506.308 171.697 505.977 175.567 503.888" stroke="#100F0D" stroke-width="1.33333" stroke-miterlimit="10" stroke-linecap="round" stroke-linejoin="round"/>
<path d="M174.86 521.005C178.457 520.895 182.023 519.872 185.129 518.056" stroke="#100F0D" stroke-width="1.33333" stroke-miterlimit="10" stroke-linecap="round" stroke-linejoin="round"/>
<path d="M190.695 520.861C190.695 520.861 170.596 512.799 174.164 482.756C176.76 460.892 187.016 445.276 200.897 439.401C208.687 437.203 213.717 437.079 221.16 437.079C232.925 449.292 239.155 467.092 239.375 482.071C239.593 497.048 234.296 514.479 223.495 524.289C213.013 524.825 190.695 520.861 190.695 520.861Z" fill="white"/>
<path d="M190.695 520.861C190.695 520.861 170.596 512.799 174.164 482.756C176.76 460.892 187.016 445.276 200.897 439.401C208.687 437.203 213.717 437.079 221.16 437.079C232.925 449.292 239.155 467.092 239.375 482.071C239.593 497.048 234.296 514.479 223.495 524.289C213.013 524.825 190.695 520.861 190.695 520.861Z" stroke="#100F0D" stroke-width="2.66667" stroke-miterlimit="10" stroke-linecap="round" stroke-linejoin="round"/>
<path d="M358.256 471.323C345.604 474.433 332.387 475.089 320.119 474.137C307.744 487.704 295.079 499.028 279.7 509.46C267.291 517.879 243.02 520.423 211.104 511.56C183.989 494.728 195.353 455.987 214.456 445.532C218.543 445.532 221.689 445.732 225.259 445.903C229.232 406.589 241.148 369.123 260.639 339.799C290.783 368.405 328.739 388.697 369.269 397.877" fill="white"/>
<path d="M358.256 471.323C345.604 474.433 332.387 475.089 320.119 474.137C307.744 487.704 295.079 499.028 279.7 509.46C267.291 517.879 243.02 520.423 211.104 511.56C183.989 494.728 195.353 455.987 214.456 445.532C218.543 445.532 221.689 445.732 225.259 445.903C229.232 406.589 241.148 369.123 260.639 339.799C290.783 368.405 328.739 388.697 369.269 397.877" stroke="#100F0D" stroke-width="2.66667" stroke-miterlimit="10" stroke-linecap="round" stroke-linejoin="round"/>
<path d="M261.361 355.503C250.035 360.917 239.005 369.473 234.631 382.528C243.121 418.568 279.591 448.269 317.773 457.504C351.589 465.681 395.381 463.859 416.208 443.355C422.62 436.943 423.128 422.096 420.784 410.468C360.931 408.169 308.896 393.797 261.361 355.503Z" fill="white"/>
<path d="M261.361 355.503C250.035 360.917 239.005 369.473 234.631 382.528C243.121 418.568 279.591 448.269 317.773 457.504C351.589 465.681 395.381 463.859 416.208 443.355C422.62 436.943 423.128 422.096 420.784 410.468C360.931 408.169 308.896 393.797 261.361 355.503Z" stroke="#100F0D" stroke-width="2.66667" stroke-miterlimit="10" stroke-linecap="round" stroke-linejoin="round"/>
<path d="M241.049 400.557C244.299 394.653 248.871 389.481 254.331 385.531" stroke="#100F0D" stroke-width="1.33333" stroke-miterlimit="10" stroke-linecap="round" stroke-linejoin="round"/>
<path d="M266.321 430.572C269.755 424.447 274.113 418.841 279.204 414.005" stroke="#100F0D" stroke-width="1.33333" stroke-miterlimit="10" stroke-linecap="round" stroke-linejoin="round"/>
<path d="M308.276 455.271C312.74 448.756 316.424 441.708 319.223 434.325" stroke="#100F0D" stroke-width="1.33333" stroke-miterlimit="10" stroke-linecap="round" stroke-linejoin="round"/>
<path d="M363.505 461.192C365.999 454.437 367.588 447.351 368.219 440.177" stroke="#100F0D" stroke-width="1.33333" stroke-miterlimit="10" stroke-linecap="round" stroke-linejoin="round"/>
<path d="M408.567 448.628C408.96 442.147 409.353 435.667 409.747 429.185" stroke="#100F0D" stroke-width="1.33333" stroke-miterlimit="10" stroke-linecap="round" stroke-linejoin="round"/>
<path d="M284.997 283.415C263.815 309.883 252.073 331.143 245.776 367.045C258.768 452.959 413.735 469.605 425.557 415.939C432.86 382.783 442.337 349.705 444.456 315.46C390.504 318.921 335.808 306.911 284.997 283.415Z" fill="white"/>
<path d="M284.997 283.415C263.815 309.883 252.073 331.143 245.776 367.045C258.768 452.959 413.735 469.605 425.557 415.939C432.86 382.783 442.337 349.705 444.456 315.46C390.504 318.921 335.808 306.911 284.997 283.415Z" stroke="#100F0D" stroke-width="2.66667" stroke-miterlimit="10" stroke-linecap="round" stroke-linejoin="round"/>
<path d="M325.116 425.807C321.241 424.531 316.873 420.76 316.62 415.208C316.403 410.449 321.859 388.492 328.125 376.665C329.993 373.14 334.909 369.816 338.947 369.283C356.543 366.957 375.22 368 393.033 370.313C404.445 371.796 413.121 373.697 416.908 381.06C417.817 382.831 418.083 384.867 417.751 386.823C415.749 398.629 412.091 410.168 406.96 420.983C404.725 425.695 400.333 429.107 395.084 430.001C375.304 433.373 347.453 433.163 325.116 425.807Z" fill="white"/>
<path d="M325.116 425.807C321.241 424.531 316.873 420.76 316.62 415.208C316.403 410.449 321.859 388.492 328.125 376.665C329.993 373.14 334.909 369.816 338.947 369.283C356.543 366.957 375.22 368 393.033 370.313C404.445 371.796 413.121 373.697 416.908 381.06C417.817 382.831 418.083 384.867 417.751 386.823C415.749 398.629 412.091 410.168 406.96 420.983C404.725 425.695 400.333 429.107 395.084 430.001C375.304 433.373 347.453 433.163 325.116 425.807Z" stroke="#100F0D" stroke-width="2.66667" stroke-miterlimit="10" stroke-linecap="round" stroke-linejoin="round"/>
<path d="M324.047 425.393C321.303 415.663 326.992 398.468 330.919 386.871C333.503 379.243 339.388 375.347 347.236 375.329C370.132 375.277 395.272 376.049 416.908 381.06" stroke="#100F0D" stroke-width="1.33333" stroke-miterlimit="10" stroke-linecap="round" stroke-linejoin="round"/>
<path d="M363.248 376.053C356.12 393.421 350.743 411.508 347.225 429.949" stroke="#100F0D" stroke-width="1.33333" stroke-miterlimit="10" stroke-linecap="round" stroke-linejoin="round"/>
<path d="M368.085 391.62C369.937 387.735 374.175 385.889 377.548 387.499C380.923 389.108 382.155 393.564 380.301 397.451C378.448 401.337 374.211 403.183 370.837 401.572C367.464 399.963 366.232 395.507 368.085 391.62Z" fill="white"/>
<path d="M368.085 391.62C369.937 387.735 374.175 385.889 377.548 387.499C380.923 389.108 382.155 393.564 380.301 397.451C378.448 401.337 374.211 403.183 370.837 401.572C367.464 399.963 366.232 395.507 368.085 391.62Z" stroke="#100F0D" stroke-width="1.33333" stroke-miterlimit="10" stroke-linecap="round" stroke-linejoin="round"/>
<path d="M376.076 413.856C377.929 409.969 382.167 408.124 385.54 409.733C388.913 411.344 390.147 415.799 388.293 419.685C386.44 423.572 382.203 425.417 378.829 423.808C375.456 422.197 374.223 417.743 376.076 413.856Z" fill="white"/>
<path d="M376.076 413.856C377.929 409.969 382.167 408.124 385.54 409.733C388.913 411.344 390.147 415.799 388.293 419.685C386.44 423.572 382.203 425.417 378.829 423.808C375.456 422.197 374.223 417.743 376.076 413.856Z" stroke="#100F0D" stroke-width="1.33333" stroke-miterlimit="10" stroke-linecap="round" stroke-linejoin="round"/>
<path d="M392.535 391.524C394.596 387.744 398.927 386.132 402.208 387.923C405.489 389.713 406.477 394.228 404.416 398.008C402.355 401.788 398.024 403.401 394.743 401.611C391.461 399.82 390.473 395.304 392.535 391.524Z" fill="white"/>
<path d="M392.535 391.524C394.596 387.744 398.927 386.132 402.208 387.923C405.489 389.713 406.477 394.228 404.416 398.008C402.355 401.788 398.024 403.401 394.743 401.611C391.461 399.82 390.473 395.304 392.535 391.524Z" stroke="#100F0D" stroke-width="1.33333" stroke-miterlimit="10" stroke-linecap="round" stroke-linejoin="round"/>
<path d="M279.959 270.228C272.777 272.981 269.488 285.352 275.275 296.265C306.783 355.681 454.747 349.847 462.191 305.857C401.263 303.3 340.8 291.163 279.959 270.228Z" fill="white"/>
<path d="M279.959 270.228C272.777 272.981 269.488 285.352 275.275 296.265C306.783 355.681 454.747 349.847 462.191 305.857C401.263 303.3 340.8 291.163 279.959 270.228Z" stroke="#100F0D" stroke-width="2.66667" stroke-miterlimit="10" stroke-linecap="round" stroke-linejoin="round"/>
<path d="M282.084 306.316C282.015 300.2 283.8 294.075 287.203 288.757" stroke="#100F0D" stroke-width="1.33333" stroke-miterlimit="10" stroke-linecap="round" stroke-linejoin="round"/>
<path d="M309.909 326.333C310.205 320.175 312.475 314.101 316.381 309.007" stroke="#100F0D" stroke-width="1.33333" stroke-miterlimit="10" stroke-linecap="round" stroke-linejoin="round"/>
<path d="M355.704 337.96C356.795 332.147 358.327 326.399 360.288 320.769" stroke="#100F0D" stroke-width="1.33333" stroke-miterlimit="10" stroke-linecap="round" stroke-linejoin="round"/>
<path d="M412.635 337.371C417.304 330.605 419.751 322.647 419.601 314.712" stroke="#100F0D" stroke-width="1.33333" stroke-miterlimit="10" stroke-linecap="round" stroke-linejoin="round"/>
<path d="M251.013 232.257C239.243 166.98 278.928 99.9547 359.723 87.9973C456.015 73.748 507.456 130.749 509.424 206.036C511.317 278.545 498.481 319.188 394.144 324.087C337.92 326.725 264.381 306.392 251.013 232.257Z" fill="white"/>
<path d="M251.013 232.257C239.243 166.98 278.928 99.9547 359.723 87.9973C456.015 73.748 507.456 130.749 509.424 206.036C511.317 278.545 498.481 319.188 394.144 324.087C337.92 326.725 264.381 306.392 251.013 232.257Z" stroke="#100F0D" stroke-width="2.66667" stroke-miterlimit="10" stroke-linecap="round" stroke-linejoin="round"/>
<path d="M253.293 205.812C249.623 167.353 240.208 129.243 225.829 94.6307" stroke="#100F0D" stroke-width="2.66667" stroke-miterlimit="10" stroke-linecap="round" stroke-linejoin="round"/>
<path d="M214.227 89.016C213.945 84.2173 217.608 80.1 222.405 79.8187C227.204 79.5387 231.321 83.2 231.603 87.9987C231.883 92.7974 228.221 96.9147 223.423 97.1947C218.624 97.476 214.507 93.8147 214.227 89.016Z" fill="white"/>
<path d="M214.227 89.016C213.945 84.2173 217.608 80.1 222.405 79.8187C227.204 79.5387 231.321 83.2 231.603 87.9987C231.883 92.7974 228.221 96.9147 223.423 97.1947C218.624 97.476 214.507 93.8147 214.227 89.016Z" stroke="#100F0D" stroke-width="2.66667" stroke-miterlimit="10" stroke-linecap="round" stroke-linejoin="round"/>
<path d="M261.692 183.335C261.595 183.341 261.501 183.357 261.405 183.367L261.403 183.36L261.36 183.371C260.1 183.488 248.917 186.603 248.917 186.603L249.261 194.253C245.845 201.515 244.036 211.749 244.692 222.967C245.305 233.431 247.949 242.791 251.743 249.533L252.14 258.38C252.14 258.38 265.844 260.365 266.199 260.345C276.831 259.723 284.441 241.979 283.197 220.713C281.953 199.448 272.324 182.713 261.692 183.335Z" fill="white"/>
<path d="M261.692 183.335C261.595 183.341 261.501 183.357 261.405 183.367L261.403 183.36L261.36 183.371C260.1 183.488 248.917 186.603 248.917 186.603L249.261 194.253C245.845 201.515 244.036 211.749 244.692 222.967C245.305 233.431 247.949 242.791 251.743 249.533L252.14 258.38C252.14 258.38 265.844 260.365 266.199 260.345C276.831 259.723 284.441 241.979 283.197 220.713C281.953 199.448 272.324 182.713 261.692 183.335Z" stroke="#100F0D" stroke-width="2.66667" stroke-miterlimit="10" stroke-linecap="round" stroke-linejoin="round"/>
<path d="M234.229 223.579C233.065 203.7 240.18 187.113 250.12 186.532C260.059 185.951 269.06 201.593 270.223 221.472C271.387 241.352 264.272 257.937 254.332 258.52C244.393 259.101 235.392 243.457 234.229 223.579Z" fill="white"/>
<path d="M234.229 223.579C233.065 203.7 240.18 187.113 250.12 186.532C260.059 185.951 269.06 201.593 270.223 221.472C271.387 241.352 264.272 257.937 254.332 258.52C244.393 259.101 235.392 243.457 234.229 223.579Z" stroke="#100F0D" stroke-width="2.66667" stroke-miterlimit="10" stroke-linecap="round" stroke-linejoin="round"/>
<path d="M243.832 222.616C243.145 210.873 246.336 201.136 250.959 200.865C255.581 200.595 259.887 209.895 260.573 221.636C261.26 233.377 258.069 243.115 253.447 243.385C248.824 243.656 244.519 234.357 243.832 222.616Z" fill="white"/>
<path d="M243.832 222.616C243.145 210.873 246.336 201.136 250.959 200.865C255.581 200.595 259.887 209.895 260.573 221.636C261.26 233.377 258.069 243.115 253.447 243.385C248.824 243.656 244.519 234.357 243.832 222.616Z" stroke="#100F0D" stroke-width="2.66667" stroke-miterlimit="10" stroke-linecap="round" stroke-linejoin="round"/>
<path d="M476.208 123.893C436.935 104.616 342.091 100.857 311.487 148.34C280.883 195.821 288.791 269.88 331.985 296.449C358.653 312.852 461.344 309.345 494.376 287.636C535.908 260.34 525.833 148.252 476.208 123.893Z" fill="white"/>
<path d="M476.208 123.893C436.935 104.616 342.091 100.857 311.487 148.34C280.883 195.821 288.791 269.88 331.985 296.449C358.653 312.852 461.344 309.345 494.376 287.636C535.908 260.34 525.833 148.252 476.208 123.893Z" stroke="#100F0D" stroke-width="2.66667" stroke-miterlimit="10" stroke-linecap="round" stroke-linejoin="round"/>
<path d="M479.78 132.985C443.64 116.021 356.267 112.903 327.968 154.963C299.671 197.023 306.796 262.505 346.535 285.909C371.068 300.359 465.685 297.036 496.163 277.764C534.485 253.533 525.447 154.421 479.78 132.985Z" fill="white"/>
<path d="M479.78 132.985C443.64 116.021 356.267 112.903 327.968 154.963C299.671 197.023 306.796 262.505 346.535 285.909C371.068 300.359 465.685 297.036 496.163 277.764C534.485 253.533 525.447 154.421 479.78 132.985Z" stroke="#100F0D" stroke-width="2.66667" stroke-miterlimit="10" stroke-linecap="round" stroke-linejoin="round"/>
<path d="M332.069 201.232C326.315 201.515 321.248 206.759 321.164 212.52C321.079 218.281 325.989 223.672 331.733 224.125C337.477 224.577 343.171 220.021 343.988 214.319C344.807 208.615 340.729 200.805 332.069 201.232Z" fill="white"/>
<path d="M332.069 201.232C326.315 201.515 321.248 206.759 321.164 212.52C321.079 218.281 325.989 223.672 331.733 224.125C337.477 224.577 343.171 220.021 343.988 214.319C344.807 208.615 340.729 200.805 332.069 201.232Z" stroke="#100F0D" stroke-width="2.66667" stroke-miterlimit="10" stroke-linecap="round" stroke-linejoin="round"/>
<path d="M402.405 166.7C351.301 161.107 351.711 193.497 340.476 192.908C328.473 192.279 336.727 157.479 362.212 144.596C375.752 137.752 394.067 135.924 409.744 139.313C428.675 143.407 427.545 169.452 402.405 166.7Z" fill="white"/>
<path d="M402.405 166.7C351.301 161.107 351.711 193.497 340.476 192.908C328.473 192.279 336.727 157.479 362.212 144.596C375.752 137.752 394.067 135.924 409.744 139.313C428.675 143.407 427.545 169.452 402.405 166.7Z" stroke="#100F0D" stroke-width="2.66667" stroke-miterlimit="10" stroke-linecap="round" stroke-linejoin="round"/>
<path d="M186.723 385.444C211.176 373.928 238.967 369.651 265.759 373.149C271.771 373.933 277.753 371.155 280.864 365.951C285.868 357.581 289.32 347.587 290.064 337.367C290.872 326.251 288.472 314.936 282.588 304.319C279.631 298.984 273.965 295.748 267.867 295.623C231.088 294.869 194.224 306.057 165.685 327.036C177.755 342.149 185.683 360.537 186.723 385.444Z" fill="white"/>
<path d="M186.723 385.444C211.176 373.928 238.967 369.651 265.759 373.149C271.771 373.933 277.753 371.155 280.864 365.951C285.868 357.581 289.32 347.587 290.064 337.367C290.872 326.251 288.472 314.936 282.588 304.319C279.631 298.984 273.965 295.748 267.867 295.623C231.088 294.869 194.224 306.057 165.685 327.036C177.755 342.149 185.683 360.537 186.723 385.444Z" stroke="#100F0D" stroke-width="2.66667" stroke-miterlimit="10" stroke-linecap="round" stroke-linejoin="round"/>
<path d="M201.132 389.057C214.981 376.823 219.705 356.311 215.749 338.259C213.636 328.613 209.061 319.184 201.32 313.055C193.577 306.927 182.336 304.724 172.38 310.817C183.199 336.327 192.819 362.343 201.132 389.057Z" fill="white"/>
<path d="M201.132 389.057C214.981 376.823 219.705 356.311 215.749 338.259C213.636 328.613 209.061 319.184 201.32 313.055C193.577 306.927 182.336 304.724 172.38 310.817C183.199 336.327 192.819 362.343 201.132 389.057Z" stroke="#100F0D" stroke-width="2.66667" stroke-miterlimit="10" stroke-linecap="round" stroke-linejoin="round"/>
<path d="M179.883 342.375C168.551 335.071 153.236 334.448 140.751 339.785C131.12 337.669 120.509 340.737 113.496 347.668C110.621 350.509 108.253 354.201 108.24 358.243C108.226 362.284 111.289 366.475 115.329 366.583C119.09 366.683 122.022 363.572 124.93 361.184C127.839 358.796 132.382 357.047 136.941 360.705C141.297 377.588 154.407 387.351 169.86 381.763C169.86 381.763 191.213 349.68 179.883 342.375Z" fill="white"/>
<path d="M179.883 342.375C168.551 335.071 153.236 334.448 140.751 339.785C131.12 337.669 120.509 340.737 113.496 347.668C110.621 350.509 108.253 354.201 108.24 358.243C108.226 362.284 111.289 366.475 115.329 366.583C119.09 366.683 122.022 363.572 124.93 361.184C127.839 358.796 132.382 357.047 136.941 360.705C141.297 377.588 154.407 387.351 169.86 381.763C169.86 381.763 191.213 349.68 179.883 342.375Z" stroke="#100F0D" stroke-width="2.66667" stroke-miterlimit="10" stroke-linecap="round" stroke-linejoin="round"/>
<path d="M164.945 338.457C160.131 324.875 146.187 316.52 132.244 312.877C124.317 310.805 114.649 310.387 109.216 316.519C107.215 318.777 106.043 322.015 107.014 324.872C108.659 329.719 114.823 330.792 119.76 332.144C129.473 334.807 137.945 341.699 142.528 350.667" fill="white"/>
<path d="M164.945 338.457C160.131 324.875 146.187 316.52 132.244 312.877C124.317 310.805 114.649 310.387 109.216 316.519C107.215 318.777 106.043 322.015 107.014 324.872C108.659 329.719 114.823 330.792 119.76 332.144C129.473 334.807 137.945 341.699 142.528 350.667" stroke="#100F0D" stroke-width="2.66667" stroke-miterlimit="10" stroke-linecap="round" stroke-linejoin="round"/>
<path d="M177.427 344.06C175.169 333.913 172.883 323.679 168.535 314.237C164.188 304.795 157.559 296.083 148.444 291.085C145.896 289.689 143.099 288.58 140.192 288.573C137.287 288.565 134.256 289.832 132.733 292.307C131.174 294.841 131.452 298.16 132.633 300.892C133.816 303.623 135.787 305.92 137.613 308.268C146.067 319.136 151.921 332.011 154.556 345.525" fill="white"/>
<path d="M177.427 344.06C175.169 333.913 172.883 323.679 168.535 314.237C164.188 304.795 157.559 296.083 148.444 291.085C145.896 289.689 143.099 288.58 140.192 288.573C137.287 288.565 134.256 289.832 132.733 292.307C131.174 294.841 131.452 298.16 132.633 300.892C133.816 303.623 135.787 305.92 137.613 308.268C146.067 319.136 151.921 332.011 154.556 345.525" stroke="#100F0D" stroke-width="2.66667" stroke-miterlimit="10" stroke-linecap="round" stroke-linejoin="round"/>
<path d="M198.033 368.265C198.033 355.791 192.919 332.079 188.355 320.447C183.792 308.815 174.749 298.077 162.204 294.187C157.224 292.641 150.501 292.883 148.219 297.315C146.932 299.811 147.6 302.86 149.06 305.272C150.521 307.683 152.683 309.637 154.605 311.744C161.475 319.273 165.384 329.127 165.433 339.036" fill="white"/>
<path d="M198.033 368.265C198.033 355.791 192.919 332.079 188.355 320.447C183.792 308.815 174.749 298.077 162.204 294.187C157.224 292.641 150.501 292.883 148.219 297.315C146.932 299.811 147.6 302.86 149.06 305.272C150.521 307.683 152.683 309.637 154.605 311.744C161.475 319.273 165.384 329.127 165.433 339.036" stroke="#100F0D" stroke-width="2.66667" stroke-miterlimit="10" stroke-linecap="round" stroke-linejoin="round"/>
<path d="M192.2 332.573C194.728 342.676 199.236 350.737 200.74 359.131C202.243 367.524 200.096 377.124 193.285 382.253C189.053 385.441 183.507 386.545 178.227 386.108C172.945 385.671 169.732 385.315 164.945 383.044" fill="white"/>
<path d="M192.2 332.573C194.728 342.676 199.236 350.737 200.74 359.131C202.243 367.524 200.096 377.124 193.285 382.253C189.053 385.441 183.507 386.545 178.227 386.108C172.945 385.671 169.732 385.315 164.945 383.044" stroke="#100F0D" stroke-width="2.66667" stroke-miterlimit="10" stroke-linecap="round" stroke-linejoin="round"/>
<path d="M200.448 357.675C202.095 366.191 199.552 373.935 203.731 379.308C206.045 382.283 208.893 384.969 210.719 388.189C212.544 391.408 213.188 395.444 210.983 398.48C209.273 400.835 206.075 402.192 202.869 402.409C199.664 402.627 196.46 401.819 193.573 400.596C183.904 396.5 177.372 387.388 177.428 378.076" fill="white"/>
<path d="M200.448 357.675C202.095 366.191 199.552 373.935 203.731 379.308C206.045 382.283 208.893 384.969 210.719 388.189C212.544 391.408 213.188 395.444 210.983 398.48C209.273 400.835 206.075 402.192 202.869 402.409C199.664 402.627 196.46 401.819 193.573 400.596C183.904 396.5 177.372 387.388 177.428 378.076" stroke="#100F0D" stroke-width="2.66667" stroke-miterlimit="10" stroke-linecap="round" stroke-linejoin="round"/>
<path d="M230.733 373.171C241.064 362.309 245.872 346.444 243.305 331.675C240.739 316.907 230.86 303.593 217.557 296.532C222.724 296.101 227.891 295.671 232.3 296.245C243.915 304.432 251.971 317.496 254.071 331.549C256.171 345.603 252.284 360.451 243.777 371.851C240.335 375.237 234.741 376.205 230.733 373.171Z" fill="white"/>
<path d="M230.733 373.171C241.064 362.309 245.872 346.444 243.305 331.675C240.739 316.907 230.86 303.593 217.557 296.532C222.724 296.101 227.891 295.671 232.3 296.245C243.915 304.432 251.971 317.496 254.071 331.549C256.171 345.603 252.284 360.451 243.777 371.851C240.335 375.237 234.741 376.205 230.733 373.171Z" stroke="#100F0D" stroke-width="2.66667" stroke-miterlimit="10" stroke-linecap="round" stroke-linejoin="round"/>
<path d="M247.601 296.408C247.028 293.685 243.372 290.312 241.339 288.319C231.196 285.423 220.929 286.359 212.572 290.724C209.276 295.056 207.897 299.249 208.376 304.52C219.797 300.769 235.669 296.839 247.601 296.408Z" fill="white"/>
<path d="M247.601 296.408C247.028 293.685 243.372 290.312 241.339 288.319C231.196 285.423 220.929 286.359 212.572 290.724C209.276 295.056 207.897 299.249 208.376 304.52C219.797 300.769 235.669 296.839 247.601 296.408Z" stroke="#100F0D" stroke-width="2.66667" stroke-miterlimit="10" stroke-linecap="round" stroke-linejoin="round"/>
</g>
<defs>
<clipPath id="clip0_1_2">
<rect width="666.667" height="666.667" fill="white"/>
</clipPath>
</defs>
</svg>
