<svg width="13" height="10" viewBox="0 0 13 10" fill="none" xmlns="http://www.w3.org/2000/svg">
<path id="Vector" d="M3.61707 9.45996C3.52727 9.4599 3.43864 9.43967 3.35771 9.40076C3.27678 9.36185 3.20562 9.30526 3.1495 9.23516L0.131261 5.48259C0.0318955 5.35819 -0.0139803 5.19941 0.00372573 5.04118C0.0214317 4.88295 0.101269 4.73823 0.225675 4.63887C0.35008 4.5395 0.508862 4.49363 0.667092 4.51133C0.825322 4.52904 0.970037 4.60887 1.0694 4.73328L3.54813 7.81146C4.62715 6.15997 7.51351 2.21558 12.1203 0.0695474C12.1921 0.0315711 12.2709 0.00858444 12.3518 0.00198297C12.4328 -0.0046185 12.5142 0.00530286 12.5913 0.031145C12.6683 0.0569872 12.7392 0.0982108 12.7998 0.152313C12.8604 0.206415 12.9094 0.272267 12.9437 0.34587C12.9781 0.419473 12.9971 0.499292 12.9997 0.58048C13.0023 0.661669 12.9883 0.742532 12.9587 0.818162C12.929 0.893792 12.8843 0.962609 12.8273 1.02044C12.7703 1.07826 12.702 1.12389 12.6268 1.15455C7.1868 3.69023 4.17456 9.09429 4.14459 9.14824C4.09605 9.233 4.02753 9.30462 3.94499 9.35685C3.86245 9.40909 3.7684 9.44037 3.67102 9.44797L3.61707 9.45996Z" fill="white"/>
</svg>
