<svg width="34" height="66" viewBox="0 0 34 66" fill="none" xmlns="http://www.w3.org/2000/svg">
<path id="Vector" fill-rule="evenodd" clip-rule="evenodd" d="M6.0638 2.65858C5.68221 3.31629 6.99837 4.78451 8.99944 5.93938C10.5057 6.81166 12.1209 7.001 12.8781 6.94778C14.1027 7.53788 15.2377 8.19723 16.2902 8.92013L16.4051 9.00831C15.7174 8.80034 14.0346 8.64634 12.3231 9.23749C10.1401 9.98781 8.56936 11.1793 8.81507 11.8993C9.06078 12.6192 11.0344 12.59 13.2174 11.8396C15.2488 11.1426 16.6032 9.64237 16.7199 9.25002L18.0047 10.2197C18.2331 10.4089 18.4535 10.5998 18.6699 10.7916L19.2789 11.3545C19.889 11.9423 20.4617 12.5506 20.9948 13.1883C20.3842 12.8135 18.7944 12.2346 16.9879 12.3618C14.6844 12.5283 12.8603 13.2771 12.9135 14.034C12.9666 14.7908 14.8819 15.2709 17.1855 15.1044C19.3449 14.9478 21.0488 13.8322 21.2391 13.491C22.4588 14.9965 23.4639 16.6314 24.2698 18.3506C23.7261 17.8196 22.3773 16.922 20.6755 16.6009C18.4043 16.1759 16.4505 16.4347 16.3096 17.1829C16.1688 17.9312 17.8955 18.8775 20.1667 19.3024C22.233 19.6876 24.1183 19.0886 24.4734 18.7956C25.1371 20.2988 25.651 21.8633 26.0236 23.4705C26.4331 25.3871 26.6509 27.3447 26.7075 29.2908L26.6376 30.5082C26.4538 29.8043 25.7228 28.2987 24.353 27.1467C22.5896 25.6572 20.7574 24.9213 20.2674 25.502C19.7775 26.0826 20.8128 27.7612 22.5763 29.2507C24.2368 30.6495 26.2416 31.0395 26.6094 30.9234L26.3981 34.5676C25.9976 37.4046 25.2813 40.1714 24.1772 42.8039C24.3042 42.2256 24.2154 40.3824 23.2548 38.6629C22.127 36.6492 20.6724 35.315 20.0123 35.6856C19.3482 36.0572 19.7283 37.9926 20.8561 40.0063C21.9839 42.0199 23.8863 43.104 24.0986 42.9835C24.1026 42.9826 24.1057 42.9778 24.1057 42.9778C23.9074 43.4377 23.7003 43.8953 23.4795 44.3475L21.5056 47.6794C21.6325 46.8464 21.6403 45.4753 21.1568 44.0922C20.3986 41.9119 19.1998 40.3476 18.4804 40.5974C17.765 40.8462 17.7979 42.8183 18.5601 44.9977C19.215 46.8703 20.5441 48.1645 21.054 48.4397L20.8024 48.8651L17.7661 52.6786C18.053 51.8908 18.3347 50.5113 18.1078 49.0191C17.7624 46.7381 16.8727 44.9783 16.1203 45.0931C15.3679 45.208 15.0439 47.1519 15.3893 49.4329C15.6863 51.3903 16.7571 52.9026 17.2082 53.2738C15.9769 54.5097 14.6442 55.5836 13.2034 56.5428C13.6216 55.8021 14.0945 54.5946 14.1702 53.2089C14.2916 50.9033 13.7766 49.0009 13.0206 48.962C12.2606 48.924 11.5498 50.7585 11.4244 53.0649C11.3268 54.9146 11.9701 56.5182 12.3517 57.0921C12.0934 57.2517 11.8303 57.4081 11.5632 57.5654L7.82471 59.3245C8.38687 58.6908 9.07198 57.6551 9.4423 56.3777C10.0791 54.1582 10.0095 52.1898 9.27927 51.9784C8.54908 51.767 7.43991 53.3985 6.80306 55.618C6.27718 57.4381 6.56755 59.1881 6.81819 59.7942L3.85663 61.0449C2.90428 61.5532 1.99828 62.2979 1.43277 63.2287L0.940221 64.2859C0.864394 64.6153 1.06815 64.9433 1.39846 65.0231C1.72791 65.0988 2.05613 64.8951 2.13595 64.5649C2.2767 63.992 2.44309 63.4805 2.8756 63.0415C4.09175 61.813 5.63588 61.1616 7.19711 60.5316C7.52795 61.083 8.77435 62.3616 10.5726 63.017C12.7428 63.8101 14.7113 63.8738 14.9719 63.1584C15.2335 62.447 13.6858 61.2245 11.5164 60.4355C10.4337 60.0405 9.35257 59.9458 8.53748 59.9822C8.90076 59.8252 9.26233 59.6603 9.6125 59.4811C10.7155 58.9156 11.7835 58.3033 12.8147 57.6362C13.0415 58.0136 14.6637 59.1743 16.7692 59.43C19.0602 59.713 20.9955 59.3287 21.0899 58.5779C21.1834 57.8231 19.4004 56.9848 17.1054 56.7028C15.7236 56.5304 14.4468 56.7906 13.6469 57.0743C15.0935 56.0638 16.4502 54.9263 17.6849 53.6479C18.0185 53.9775 19.8233 54.7609 21.9097 54.5949C24.2129 54.4076 26.0296 53.6437 25.9676 52.8845C25.9065 52.1293 23.9905 51.666 21.6873 51.8534C20.246 51.9692 19.0129 52.5125 18.2953 52.9664L21.2293 49.1622C21.3338 49.0062 21.4414 48.8454 21.546 48.6895C21.8017 48.948 23.8015 49.4518 25.9178 48.8785C28.1483 48.2725 29.7918 47.1866 29.5931 46.4524C29.3945 45.7183 27.4264 45.6169 25.1959 46.2229C23.7278 46.6242 22.5704 47.4435 21.9684 48.0272C22.9408 46.4792 23.8169 44.8516 24.5264 43.1677C25.0207 43.3501 26.9323 43.4219 28.7765 42.5519C30.8674 41.5665 32.2991 40.2126 31.9729 39.5266C31.6507 38.8397 29.6935 39.0825 27.6025 40.0679C26.3771 40.647 25.4542 41.5081 24.9228 42.1686C24.9259 42.1637 24.9251 42.1598 24.9282 42.1549L26.2728 37.1287C26.5306 37.2991 28.6375 37.112 30.4625 35.8202C32.3495 34.486 33.5234 32.9032 33.0859 32.2828C32.6484 31.6623 30.7628 32.2405 28.8759 33.5747C27.4605 34.5744 26.6148 35.9534 26.3404 36.6634L26.9947 31.9057C27.012 31.5764 27.0205 31.2447 27.025 30.9139C27.3516 31.0153 29.3542 30.4371 30.8909 28.852C32.5005 27.1971 33.3619 25.4223 32.819 24.8953C32.2754 24.3643 30.5288 25.2803 28.9201 26.9392C27.7967 28.0936 27.2163 29.4827 27.0295 30.27C27.0176 28.3769 26.8255 26.4807 26.4656 24.6203C26.4739 24.6394 26.4853 24.6536 26.495 24.6599C26.7026 24.7909 28.6623 23.8169 29.9003 21.8698C31.1384 19.9226 31.6238 18.011 30.9856 17.6046C30.3434 17.199 28.8183 18.4476 27.5803 20.3947C26.595 21.9413 26.3607 23.6406 26.4099 24.3399C26.0238 22.435 25.465 20.5628 24.7391 18.768C23.5859 15.9122 21.7028 13.2959 19.3819 11.2699L19.1684 11.1109C18.3684 10.3383 17.4897 9.549 16.7608 9.01163C16.0272 8.47112 15.2726 8.04781 14.652 7.70442L14.6124 7.67531L13.3209 6.86987C13.4414 6.65205 12.3863 4.74394 10.3852 3.58907C8.38418 2.4342 6.45621 2.03196 6.07462 2.68967L6.0638 2.65858ZM14.7098 0.819631C13.9745 1.01431 13.8647 2.98343 14.4626 5.2147C15.0605 7.44597 16.6336 8.96365 16.8707 8.90047C17.1079 8.83728 17.7158 6.73667 17.1179 4.5054C16.5201 2.27413 15.4411 0.6258 14.7098 0.819631ZM21.4532 4.83587C20.6938 4.83948 20.0829 6.71108 20.0873 9.01905C20.0917 11.327 21.2264 13.1972 21.4723 13.1948C21.7183 13.1924 22.8427 11.3196 22.8383 9.01162C22.8339 6.70366 22.2127 4.83227 21.4532 4.83587ZM26.9069 10.4596C26.173 10.2698 25.1026 11.9265 24.5228 14.1589C23.939 16.3921 24.5624 18.4885 24.7971 18.5511C25.0359 18.6128 26.6014 17.0842 27.1812 14.8518C27.765 12.6186 27.6408 10.6493 26.9069 10.4596ZM18.8226 20.7336C18.4595 21.3999 19.8145 22.8347 21.8453 23.9332C23.8761 25.0316 26.0603 24.9323 26.1768 24.7154C26.2934 24.4984 25.1849 22.6142 23.1541 21.5158C21.1234 20.4174 19.1856 20.0673 18.8226 20.7336ZM20.6411 30.5744C20.0545 31.0546 20.7611 32.8952 22.2248 34.6826C23.6845 36.4709 25.7458 37.2037 25.9345 37.0507C26.1232 36.8977 25.8145 34.7298 24.3508 32.9424C22.8911 31.1542 21.2277 30.0942 20.6411 30.5744Z" fill="white"/>
</svg>
