<svg width="34" height="66" viewBox="0 0 34 66" fill="none" xmlns="http://www.w3.org/2000/svg">
<path id="Vector" fill-rule="evenodd" clip-rule="evenodd" d="M27.9362 2.65858C28.3178 3.31629 27.0016 4.78451 25.0006 5.93938C23.4943 6.81166 21.8791 7.001 21.1219 6.94778C19.8973 7.53788 18.7623 8.19723 17.7098 8.92013L17.5949 9.00831C18.2826 8.80034 19.9654 8.64634 21.6769 9.23749C23.8599 9.98781 25.4306 11.1793 25.1849 11.8993C24.9392 12.6192 22.9656 12.59 20.7826 11.8396C18.7512 11.1426 17.3968 9.64237 17.2801 9.25002L15.9953 10.2197C15.7669 10.4089 15.5465 10.5998 15.3301 10.7916L14.7211 11.3545C14.111 11.9423 13.5383 12.5506 13.0052 13.1883C13.6158 12.8135 15.2056 12.2346 17.0121 12.3618C19.3156 12.5283 21.1397 13.2771 21.0865 14.034C21.0334 14.7908 19.1181 15.2709 16.8145 15.1044C14.6551 14.9478 12.9512 13.8322 12.7609 13.491C11.5412 14.9965 10.5361 16.6314 9.73024 18.3506C10.2739 17.8196 11.6227 16.922 13.3245 16.6009C15.5957 16.1759 17.5495 16.4347 17.6904 17.1829C17.8312 17.9312 16.1045 18.8775 13.8333 19.3024C11.767 19.6876 9.88166 19.0886 9.52657 18.7956C8.86288 20.2988 8.349 21.8633 7.97637 23.4705C7.56687 25.3871 7.34911 27.3447 7.29252 29.2908L7.36239 30.5082C7.5462 29.8043 8.27722 28.2987 9.64695 27.1467C11.4104 25.6572 13.2426 24.9213 13.7326 25.502C14.2225 26.0826 13.1872 27.7612 11.4237 29.2507C9.76317 30.6495 7.75844 31.0395 7.39063 30.9234L7.60195 34.5676C8.00243 37.4046 8.71867 40.1714 9.82282 42.8039C9.69576 42.2256 9.78465 40.3824 10.7452 38.6629C11.873 36.6492 13.3276 35.315 13.9877 35.6856C14.6518 36.0572 14.2717 37.9926 13.1439 40.0063C12.0161 42.0199 10.1137 43.104 9.90139 42.9835C9.8974 42.9826 9.89426 42.9778 9.89426 42.9778C10.0926 43.4377 10.2997 43.8953 10.5205 44.3475L12.4944 47.6794C12.3675 46.8464 12.3597 45.4753 12.8432 44.0922C13.6014 41.9119 14.8002 40.3476 15.5196 40.5974C16.235 40.8462 16.2021 42.8183 15.4399 44.9977C14.785 46.8703 13.4559 48.1645 12.946 48.4397L13.1976 48.8651L16.2339 52.6786C15.947 51.8908 15.6653 50.5113 15.8922 49.0191C16.2376 46.7381 17.1273 44.9783 17.8797 45.0931C18.6321 45.208 18.9561 47.1519 18.6107 49.4329C18.3137 51.3903 17.2429 52.9026 16.7918 53.2738C18.0231 54.5097 19.3558 55.5836 20.7966 56.5428C20.3784 55.8021 19.9055 54.5946 19.8298 53.2089C19.7084 50.9033 20.2234 49.0009 20.9794 48.962C21.7394 48.924 22.4502 50.7585 22.5756 53.0649C22.6732 54.9146 22.0299 56.5182 21.6483 57.0921C21.9066 57.2517 22.1697 57.4081 22.4368 57.5654L26.1753 59.3245C25.6131 58.6908 24.928 57.6551 24.5577 56.3777C23.9209 54.1582 23.9905 52.1898 24.7207 51.9784C25.4509 51.767 26.5601 53.3985 27.1969 55.618C27.7228 57.4381 27.4325 59.1881 27.1818 59.7942L30.1434 61.0449C31.0957 61.5532 32.0017 62.2979 32.5672 63.2287L33.0598 64.2859C33.1356 64.6153 32.9319 64.9433 32.6015 65.0231C32.2721 65.0988 31.9439 64.8951 31.8641 64.5649C31.7233 63.992 31.5569 63.4805 31.1244 63.0415C29.9082 61.813 28.3641 61.1616 26.8029 60.5316C26.472 61.083 25.2256 62.3616 23.4274 63.017C21.2572 63.8101 19.2887 63.8738 19.0281 63.1584C18.7665 62.447 20.3142 61.2245 22.4836 60.4355C23.5663 60.0405 24.6474 59.9458 25.4625 59.9822C25.0992 59.8252 24.7377 59.6603 24.3875 59.4811C23.2845 58.9156 22.2165 58.3033 21.1853 57.6362C20.9585 58.0136 19.3363 59.1743 17.2308 59.43C14.9398 59.713 13.0045 59.3287 12.9101 58.5779C12.8166 57.8231 14.5996 56.9848 16.8946 56.7028C18.2764 56.5304 19.5532 56.7906 20.3531 57.0743C18.9065 56.0638 17.5498 54.9263 16.3151 53.6479C15.9815 53.9775 14.1767 54.7609 12.0903 54.5949C9.78709 54.4076 7.97043 53.6437 8.03239 52.8845C8.0935 52.1293 10.0095 51.666 12.3127 51.8534C13.754 51.9692 14.9871 52.5125 15.7047 52.9664L12.7707 49.1622C12.6662 49.0062 12.5586 48.8454 12.454 48.6895C12.1983 48.948 10.1985 49.4518 8.08215 48.8785C5.85166 48.2725 4.20824 47.1866 4.40686 46.4524C4.60549 45.7183 6.57361 45.6169 8.80411 46.2229C10.2722 46.6242 11.4296 47.4435 12.0316 48.0272C11.0592 46.4792 10.1831 44.8516 9.47359 43.1677C8.97931 43.3501 7.06766 43.4219 5.22355 42.5519C3.13258 41.5665 1.70095 40.2126 2.02713 39.5266C2.34932 38.8397 4.30655 39.0825 6.39751 40.0679C7.62293 40.647 8.54585 41.5081 9.07721 42.1686C9.07407 42.1637 9.07493 42.1598 9.07179 42.1549L7.72723 37.1287C7.46944 37.2991 5.36248 37.112 3.53747 35.8202C1.65054 34.486 0.476644 32.9032 0.914135 32.2828C1.35163 31.6623 3.23719 32.2405 5.12413 33.5747C6.53955 34.5744 7.38522 35.9534 7.65958 36.6634L7.00531 31.9057C6.98797 31.5764 6.97947 31.2447 6.97496 30.9139C6.64838 31.0153 4.64585 30.4371 3.10907 28.852C1.4995 27.1971 0.638146 25.4223 1.18097 24.8953C1.72465 24.3643 3.47123 25.2803 5.07995 26.9392C6.20334 28.0936 6.7837 29.4827 6.97053 30.27C6.98236 28.3769 7.17449 26.4807 7.53439 24.6203C7.52613 24.6394 7.51473 24.6536 7.50504 24.6599C7.29744 24.7909 5.33771 23.8169 4.09967 21.8698C2.86162 19.9226 2.37619 18.011 3.01438 17.6046C3.65657 17.199 5.18171 18.4476 6.41975 20.3947C7.40504 21.9413 7.63928 23.6406 7.59012 24.3399C7.97624 22.435 8.53498 20.5628 9.26095 18.768C10.4141 15.9122 12.2972 13.2959 14.6181 11.2699L14.8316 11.1109C15.6316 10.3383 16.5103 9.549 17.2392 9.01163C17.9728 8.47112 18.7274 8.04781 19.348 7.70442L19.3876 7.67531L20.6791 6.86987C20.5586 6.65205 21.6137 4.74394 23.6148 3.58907C25.6158 2.4342 27.5438 2.03196 27.9254 2.68967L27.9362 2.65858ZM19.2902 0.819631C20.0255 1.01431 20.1353 2.98343 19.5374 5.2147C18.9395 7.44597 17.3664 8.96365 17.1293 8.90047C16.8921 8.83728 16.2842 6.73667 16.8821 4.5054C17.4799 2.27413 18.5589 0.6258 19.2902 0.819631ZM12.5468 4.83587C13.3062 4.83948 13.9171 6.71108 13.9127 9.01905C13.9083 11.327 12.7736 13.1972 12.5277 13.1948C12.2817 13.1924 11.1573 11.3196 11.1617 9.01162C11.1661 6.70366 11.7873 4.83227 12.5468 4.83587ZM7.09309 10.4596C7.827 10.2698 8.89739 11.9265 9.47719 14.1589C10.061 16.3921 9.43763 18.4885 9.20289 18.5511C8.96414 18.6128 7.39859 17.0842 6.81879 14.8518C6.235 12.6186 6.35918 10.6493 7.09309 10.4596ZM15.1774 20.7336C15.5405 21.3999 14.1855 22.8347 12.1547 23.9332C10.1239 25.0316 7.93971 24.9323 7.82317 24.7154C7.70662 24.4984 8.8151 22.6142 10.8459 21.5158C12.8766 20.4174 14.8144 20.0673 15.1774 20.7336ZM13.3589 30.5744C13.9455 31.0546 13.2389 32.8952 11.7752 34.6826C10.3155 36.4709 8.2542 37.2037 8.06552 37.0507C7.87684 36.8977 8.18547 34.7298 9.64919 32.9424C11.1089 31.1542 12.7723 30.0942 13.3589 30.5744Z" fill="white"/>
</svg>
