<svg width="55" height="55" viewBox="0 0 55 55" fill="none" xmlns="http://www.w3.org/2000/svg">
<rect x="1" y="1" width="53" height="53" rx="15" fill="#FFCF26" stroke="white" stroke-width="2"/>
<g clip-path="url(#clip0_2424_13231)">
<path d="M38.9999 24.1271V35.1671C38.9999 35.4212 38.899 35.665 38.7192 35.8447C38.5395 36.0244 38.2957 36.1254 38.0416 36.1254C37.7874 36.1254 37.5437 36.0244 37.3639 35.8447C37.1842 35.665 37.0833 35.4212 37.0833 35.1671V27.2627L29.9916 30.6514C29.2438 31.0928 28.3902 31.3226 27.522 31.3165C26.6114 31.3179 25.7174 31.0732 24.9345 30.6083L17.862 27.2416C17.306 26.9427 16.8402 26.5004 16.5128 25.9607C16.1855 25.421 16.0085 24.8035 16.0003 24.1723C15.9921 23.5412 16.1529 22.9193 16.4661 22.3712C16.7793 21.8232 17.2335 21.3689 17.7815 21.0556C17.8073 21.0403 17.8351 21.0259 17.862 21.0125L25.0082 17.6027C25.7798 17.1597 26.6554 16.9301 27.5451 16.9377C28.4347 16.9453 29.3063 17.1897 30.0702 17.6459L37.1379 21.0125C37.6956 21.321 38.1616 21.7718 38.4887 22.3188C38.8157 22.8659 38.9921 23.4897 38.9999 24.1271ZM27.521 33.2312C26.2949 33.2339 25.0898 32.9126 24.0279 32.2997L19.8332 30.2978V32.8853C19.8338 33.9083 20.1613 34.9044 20.768 35.7281C21.3747 36.5519 22.2288 37.1602 23.2056 37.4642C24.6013 37.8649 26.048 38.0596 27.4999 38.0421C28.952 38.0583 30.3987 37.8624 31.7942 37.4604C32.771 37.1563 33.6251 36.548 34.2318 35.7243C34.8385 34.9006 35.166 33.9045 35.1666 32.8814V30.3026L30.8934 32.3438C29.8676 32.9331 28.704 33.24 27.521 33.2331V33.2312Z" fill="black"/>
</g>
<defs>
<clipPath id="clip0_2424_13231">
<rect width="23" height="23" fill="white" transform="translate(16 16)"/>
</clipPath>
</defs>
</svg>
